<?xml version="1.0" encoding="utf-8"?>
<!-- Generator: Adobe Illustrator 27.2.0, SVG Export Plug-In . SVG Version: 6.00 Build 0)  -->
<svg version="1.1" id="Layer_1" xmlns="http://www.w3.org/2000/svg" xmlns:xlink="http://www.w3.org/1999/xlink" x="0px" y="0px"
	 viewBox="0 0 1097.7 538.5" style="enable-background:new 0 0 1097.7 538.5;" xml:space="preserve">
<style type="text/css">
	.st0{fill:#FFFFFF;}
</style>
<g>
	<g>
		<g>
			<g>
				<path d="M191.6,264.2c33.7,0,69.6-12.3,69.6-46.7c0-25.9-20.4-34.2-36.8-40.9c-12.1-4.9-22.6-9.2-22.6-19
					c0-11.2,12.9-15.1,24.9-15.1h28.9v-21.8h-32.2c-28.4,0-47.5,14.8-47.5,36.9c0,22.4,18.2,30.3,34.3,37.3
					c13.8,6,25.8,11.2,25.8,23.8c0,17.5-22.8,23.7-44.1,23.7c-42.3,0-48.6-23.5-48.6-37.5v-25.6h-25.1v29.1
					C118.5,243.4,145.8,264.2,191.6,264.2z"/>
			</g>
			<g>
				<path d="M317.9,217.7h19.6c-1.8,18.7-12.5,27.7-32.6,27.7h-13v21.8h13.8c34.7,0,54.4-17.1,57-49.5h11.2h0.5h19.1
					c20,0,31.4-11.3,31.4-30.9v-51.5h-24.8v60.6h-25.7h-0.5h-10.6v-24.4c0-27.2-17.4-44.7-44.2-44.7c-26.5,0-44.2,18.5-44.2,46
					C274.7,200.1,291.6,217.7,317.9,217.7z M318.9,148.6c11.6,0,19.2,9.2,19.2,23.4v23.9h-19.2c-11.7,0-18.6-8.9-18.6-23.7
					C300.2,160.8,305.1,148.6,318.9,148.6z"/>
			</g>
			<g>
				<path d="M412.7,118.4c8.4,0,12.3-6.4,12.3-12.3c0-6.1-4.2-12.3-12.3-12.3c-7.5,0-12,6.2-12,12.3
					C400.7,112.2,404.8,118.4,412.7,118.4z"/>
			</g>
			<g>
				<path d="M107.4,420.6c-7.7,0-11.8,6.2-11.8,12c0,6,4,12,11.8,12c7.9,0,12-6.1,12-12C119.4,426.8,115.2,420.6,107.4,420.6z"/>
			</g>
			<g>
				<path d="M137.6,420.6c-7.7,0-11.8,6.2-11.8,12c0,6,4,12,11.8,12c7.9,0,12-6.1,12-12C149.6,426.8,145.4,420.6,137.6,420.6z"/>
			</g>
			<g>
				<path d="M128,381.6h-25.7h-0.5h-0.8c-7.9,0-12.9-4.7-12.9-12.4v-99.1H63.4v99.3c0,20.6,14.7,33.9,37.4,33.9h1h0.5h19.1
					c20,0,31.4-11.3,31.4-30.9V321H128V381.6z"/>
			</g>
			<g>
				<path d="M285.4,420.6c-7.7,0-11.8,6.2-11.8,12c0,6,4,12,11.8,12c7.9,0,12-6.1,12-12C297.5,426.8,293.3,420.6,285.4,420.6z"/>
			</g>
			<g>
				<path d="M255.3,420.6c-7.7,0-11.8,6.2-11.8,12c0,6,4,12,11.8,12c7.9,0,12-6.1,12-12C267.3,426.8,263.1,420.6,255.3,420.6z"/>
			</g>
			<g>
				<path d="M385.5,314.7c-20.1,0-31.6,6.4-37.4,20.7l-11.8,28.9c-4.6,12.1-10.5,17.2-19.7,17.2h-2.8h-0.2h-0.2
					c-7.7,0-12.9-4.9-12.9-12.1v-38.9h-24.8V371c0,2,0.2,4,0.4,5.9c-7.7,3.3-15.6,4.7-26.4,4.7h-0.5h0h-9.3v-22.4
					c0-27.6-16.1-44.7-42-44.7h-19.8v21.8h18.6c11.4,0,18.1,8.6,18.1,22.9v22.4H166v21.8h83.2h0h0.5c13.5,0,24.3-3,35.1-9.6
					c6.6,6.3,16.2,9.6,27.8,9.6h1h0.2h3.8c12.2,0,22-3.8,29.7-11.5c10.1,8.2,21.6,12.2,35.1,12.2c27.9,0,46-17.9,46-45.5
					C428.5,332,411.6,314.7,385.5,314.7z M403.7,358.5c0,15.4-8,23.9-22.4,23.9c-9.4,0-16.3-3.8-22.2-7.9c0.4-1,0.8-2,1.4-2.9
					l13.7-35H386C397.1,336.5,403.7,344.7,403.7,358.5z"/>
			</g>
		</g>
		<g>
			<g>
				<polygon points="670,350 670,444.7 695,426.3 695,331.6 				"/>
			</g>
			<g>
				<polygon points="797.4,248.3 797.4,343 822.3,324.6 822.3,229.9 				"/>
			</g>
			<g>
				<polygon points="884.5,164.8 884.5,259.5 909.5,241.1 909.5,146.4 				"/>
			</g>
			<g>
				<g>
					<polygon points="1009.3,164.8 1009.3,259.5 1034.3,241.1 1034.3,146.4 					"/>
				</g>
				<g>
					<polygon points="1009.3,112.2 1009.3,139.7 1034.3,121.4 1034.3,93.8 					"/>
				</g>
			</g>
			<g>
				<polygon points="946.9,159.1 946.9,444.7 971.9,426.3 971.9,140.8 				"/>
			</g>
			<g>
				<polygon points="733.7,254.3 733.7,444.7 758.7,426.3 758.7,236 				"/>
			</g>
		</g>
		<g>
			<rect x="543.8" y="93.8" width="7.3" height="350.9"/>
		</g>
	</g>
</g>
</svg>
