<?xml version="1.0" encoding="utf-8"?>
<!-- Generator: Adobe Illustrator 27.2.0, SVG Export Plug-In . SVG Version: 6.00 Build 0)  -->
<svg version="1.1" id="Layer_1" xmlns="http://www.w3.org/2000/svg" xmlns:xlink="http://www.w3.org/1999/xlink" x="0px" y="0px"
	 viewBox="0 0 1097.7 538.5" style="enable-background:new 0 0 1097.7 538.5;" xml:space="preserve">
<style type="text/css">
	.st0{fill:#FFFFFF;}
</style>
<g>
	<rect x="0" width="538.5" height="538.5"/>
	<rect x="559.2" width="538.5" height="538.5"/>
	<g>
		<g>
			<path class="st0" d="M807.3,273.4c32.7,0,67.6-11.9,67.6-45.4c0-25.1-19.8-33.2-35.7-39.7c-11.8-4.8-21.9-8.9-21.9-18.4
				c0-10.8,12.5-14.7,24.2-14.7h28v-21.2h-31.2c-27.6,0-46.1,14.4-46.1,35.8c0,21.7,17.7,29.4,33.3,36.2c13.4,5.8,25,10.8,25,23.1
				c0,16.9-22.1,23-42.7,23c-41,0-47.1-22.8-47.1-36.4V191h-24.3v28.3C736.3,253.2,762.9,273.4,807.3,273.4z"/>
			<path class="st0" d="M929.8,228.3h19c-1.7,18.1-12.1,26.9-31.7,26.9h-12.7v21.2h13.4c33.7,0,52.8-16.6,55.3-48.1H984h0.5h18.5
				c19.4,0,30.5-10.9,30.5-30v-50h-24.1v58.8h-24.9H984h-10.3v-23.7c0-26.4-16.8-43.4-42.9-43.4c-25.7,0-42.9,17.9-42.9,44.6
				C887.9,211.2,904.3,228.3,929.8,228.3z M930.8,161.2c11.3,0,18.6,8.9,18.6,22.7v23.2h-18.6c-11.3,0-18.1-8.6-18.1-23
				C912.7,173,917.4,161.2,930.8,161.2z"/>
			<path class="st0" d="M1021.8,131.9c8.2,0,11.9-6.2,11.9-11.9c0-5.9-4.1-11.9-11.9-11.9c-7.3,0-11.7,6.1-11.7,11.9
				C1010.1,125.9,1014.1,131.9,1021.8,131.9z"/>
			<path class="st0" d="M725.6,425.2c-7.4,0-11.4,6-11.4,11.7c0,5.8,3.9,11.7,11.4,11.7c7.7,0,11.7-5.9,11.7-11.7
				C737.2,431.2,733.2,425.2,725.6,425.2z"/>
			<path class="st0" d="M754.9,425.2c-7.4,0-11.4,6-11.4,11.7c0,5.8,3.9,11.7,11.4,11.7c7.7,0,11.7-5.9,11.7-11.7
				C766.5,431.2,762.4,425.2,754.9,425.2z"/>
			<path class="st0" d="M745.6,387.3h-24.9h-0.5h-0.7c-7.7,0-12.5-4.6-12.5-12v-96.1h-24.1v96.4c0,20,14.3,32.9,36.3,32.9h1h0.5
				h18.6c19.4,0,30.5-10.9,30.5-30v-50h-24.1V387.3z"/>
			<path class="st0" d="M898.3,425.2c-7.4,0-11.4,6-11.4,11.7c0,5.8,3.9,11.7,11.4,11.7c7.7,0,11.7-5.9,11.7-11.7
				C910,431.2,905.9,425.2,898.3,425.2z"/>
			<path class="st0" d="M869.1,425.2c-7.4,0-11.4,6-11.4,11.7c0,5.8,3.9,11.7,11.4,11.7c7.7,0,11.7-5.9,11.7-11.7
				C880.7,431.2,876.6,425.2,869.1,425.2z"/>
			<path class="st0" d="M995.5,322.4c-19.5,0-30.6,6.2-36.3,20.1l-11.5,28.1c-4.5,11.7-10.2,16.7-19.1,16.7h-2.7h-0.2h-0.2
				c-7.5,0-12.5-4.7-12.5-11.8v-37.8h-24.1V377c0,2,0.2,3.9,0.4,5.8c-7.4,3.2-15.1,4.5-25.6,4.5h-0.5h0h-9.1v-21.8
				c0-26.8-15.6-43.4-40.7-43.4h-19.2v21.2h18c11,0,17.6,8.3,17.6,22.2v21.8h-47.3v21.2h80.7h0h0.5c13.1,0,23.6-2.9,34-9.3
				c6.4,6.1,15.7,9.3,27,9.3h1h0.2h3.7c11.9,0,21.3-3.6,28.9-11.1c9.8,8,21,11.9,34.1,11.9c27.1,0,44.6-17.3,44.6-44.1
				C1037.1,339.2,1020.8,322.4,995.5,322.4z M1013.1,364.8c0,15-7.7,23.2-21.8,23.2c-9.2,0-15.8-3.6-21.5-7.7
				c0.4-0.9,0.8-1.9,1.4-2.8l13.3-34h11.6C1006.7,343.6,1013.1,351.5,1013.1,364.8z"/>
		</g>
	</g>
	<g>
		<g>
			<polygon class="st0" points="79.6,356.9 79.6,455.5 105.6,436.4 105.6,337.8 			"/>
			<polygon class="st0" points="212.2,251.1 212.2,349.6 238.2,330.5 238.2,231.9 			"/>
			<polygon class="st0" points="302.9,164.1 302.9,262.7 328.9,243.6 328.9,145 			"/>
			<g>
				<polygon class="st0" points="432.9,164.1 432.9,262.7 458.9,243.6 458.9,145 				"/>
				<polygon class="st0" points="432.9,109.4 432.9,138.1 458.9,118.9 458.9,90.2 				"/>
			</g>
			<polygon class="st0" points="367.9,158.3 367.9,455.5 393.9,436.4 393.9,139.1 			"/>
			<polygon class="st0" points="145.9,257.3 145.9,455.5 171.9,436.4 171.9,238.2 			"/>
		</g>
	</g>
</g>
</svg>
