<svg version="1.2" xmlns="http://www.w3.org/2000/svg" viewBox="0 0 1098 539" width="1098" height="539">
	<title>NAWA Media_Logo_box_black-svg</title>
	<style>
		.s0 { fill: #ffffff } 
	</style>
	<g id="Layer">
		<g id="Layer">
			<g id="Layer">
				<path id="Layer" class="s0" d="m807.3 273.4c32.7 0 67.6-11.9 67.6-45.4 0-25.1-19.8-33.2-35.7-39.7-11.8-4.8-21.9-8.9-21.9-18.4 0-10.8 12.5-14.7 24.2-14.7h28v-21.2h-31.2c-27.6 0-46.1 14.4-46.1 35.8 0 21.7 17.7 29.4 33.3 36.2 13.4 5.8 25 10.8 25 23.1 0 16.9-22.1 23-42.7 23-41 0-47.1-22.8-47.1-36.4v-24.7h-24.3v28.3c-0.1 33.9 26.5 54.1 70.9 54.1z"/>
				<path id="Layer" fill-rule="evenodd" class="s0" d="m887.9 184.6c0-26.7 17.2-44.6 42.9-44.6 26.1 0 42.9 17 42.9 43.4v23.7h35.7v-58.8h24.1v50c0 19.1-11.1 30-30.5 30h-29.9c-2.5 31.5-21.6 48.1-55.3 48.1h-13.4v-21.2h12.7c19.6 0 30-8.8 31.7-26.9h-19c-25.5 0-41.9-17.1-41.9-43.7zm24.8-0.5c0 14.4 6.8 23 18.1 23h18.6v-23.2c0-13.8-7.3-22.7-18.6-22.7-13.4 0-18.1 11.8-18.1 22.9z"/>
				<path id="Layer" class="s0" d="m1021.8 131.9c8.2 0 11.9-6.2 11.9-11.9 0-5.9-4.1-11.9-11.9-11.9-7.3 0-11.7 6.1-11.7 11.9 0 5.9 4 11.9 11.7 11.9z"/>
				<path id="Layer" class="s0" d="m725.6 425.2c-7.4 0-11.4 6-11.4 11.7 0 5.8 3.9 11.7 11.4 11.7 7.7 0 11.7-5.9 11.7-11.7-0.1-5.7-4.1-11.7-11.7-11.7z"/>
				<path id="Layer" class="s0" d="m754.9 425.2c-7.4 0-11.4 6-11.4 11.7 0 5.8 3.9 11.7 11.4 11.7 7.7 0 11.7-5.9 11.7-11.7-0.1-5.7-4.2-11.7-11.7-11.7z"/>
				<path id="Layer" class="s0" d="m745.6 387.3h-24.9-0.5-0.7c-7.7 0-12.5-4.6-12.5-12v-96.1h-24.1v96.4c0 20 14.3 32.9 36.3 32.9h1 0.5 18.6c19.4 0 30.5-10.9 30.5-30v-50h-24.1v58.8z"/>
				<path id="Layer" class="s0" d="m898.3 425.2c-7.4 0-11.4 6-11.4 11.7 0 5.8 3.9 11.7 11.4 11.7 7.7 0 11.7-5.9 11.7-11.7 0-5.7-4.1-11.7-11.7-11.7z"/>
				<path id="Layer" class="s0" d="m869.1 425.2c-7.4 0-11.4 6-11.4 11.7 0 5.8 3.9 11.7 11.4 11.7 7.7 0 11.7-5.9 11.7-11.7-0.1-5.7-4.2-11.7-11.7-11.7z"/>
				<path id="Layer" fill-rule="evenodd" class="s0" d="m1037.2 365.2c0 26.8-17.5 44.1-44.6 44.1-13.1 0-24.3-3.9-34.1-11.9-7.6 7.5-17 11.1-28.9 11.1h-4.9c-11.3 0-20.6-3.2-27-9.3-10.4 6.4-20.9 9.3-34 9.3h-81.2v-21.2h47.3v-21.8c0-13.9-6.6-22.2-17.6-22.2h-18v-21.2h19.2c25.1 0 40.7 16.6 40.7 43.4v21.8h9.6c10.5 0 18.2-1.3 25.6-4.5-0.2-1.9-0.4-3.8-0.4-5.8v-39.3h24.1v37.8c0 7.1 5 11.8 12.5 11.8h3.1c8.9 0 14.6-5 19.1-16.7l11.5-28.1c5.7-13.9 16.8-20.1 36.3-20.1 25.3 0 41.6 16.8 41.7 42.8zm-41.1-21.7h-11.6l-13.3 34c-0.6 0.9-1 1.9-1.4 2.8 5.7 4.1 12.3 7.7 21.5 7.7 14.1 0 21.8-8.2 21.8-23.2 0-13.3-6.4-21.2-17-21.3z"/>
			</g>
		</g>
		<g id="Layer">
			<g id="Layer">
				<path id="Layer" class="s0" d="m79.6 356.9v98.6l26-19.1v-98.6z"/>
				<path id="Layer" class="s0" d="m212.2 251.1v98.5l26-19.1v-98.6z"/>
				<path id="Layer" class="s0" d="m302.9 164.1v98.6l26-19.1v-98.6z"/>
				<g id="Layer">
					<path id="Layer" class="s0" d="m432.9 164.1v98.6l26-19.1v-98.6z"/>
					<path id="Layer" class="s0" d="m432.9 109.4v28.7l26-19.2v-28.7z"/>
				</g>
				<path id="Layer" class="s0" d="m367.9 158.3v297.2l26-19.1v-297.3z"/>
				<path id="Layer" class="s0" d="m145.9 257.3v198.2l26-19.1v-198.2z"/>
			</g>
		</g>
	</g>
</svg>