<svg xmlns="http://www.w3.org/2000/svg" width="95" height="96" fill="#fcdad8" xmlns:v="https://vecta.io/nano"><path d="M40.035 18.691h14.688v2.969H40.035v-2.969zm0 5.938h14.688v2.969H40.035v-2.969zm44.063 56.406V69.16c0-.659-.43-1.24-1.058-1.425L48.848 57.656V39.473h10.281c.812 0 1.469-.665 1.469-1.484v-23.75a1.49 1.49 0 0 0-.43-1.049l-8.812-8.906c-.275-.279-.648-.435-1.038-.435H35.629c-.812 0-1.469.665-1.469 1.484v32.656c0 .819.656 1.484 1.469 1.484H45.91v18.183L11.718 67.735c-.627.185-1.058.766-1.058 1.425v11.875c0 .659.43 1.239 1.058 1.425l35.25 10.391a1.44 1.44 0 0 0 .411.059 1.44 1.44 0 0 0 .411-.059L83.04 82.46c.627-.186 1.058-.766 1.058-1.425zM51.785 8.915l3.798 3.839h-3.798V8.915zM37.098 6.816h11.75v7.422c0 .819.656 1.484 1.469 1.484h7.344v20.781H37.098V6.816zm8.813 53.932v7.797l-3.368-3.404-2.077 2.099 5.875 5.938c.286.289.662.435 1.038.435s.752-.145 1.038-.435l5.875-5.937-2.077-2.099-3.368 3.404v-7.797l28.536 8.412-30.005 8.844-30.005-8.844 28.536-8.412zM13.598 71.139l32.313 9.525v8.783l-32.312-9.525v-8.783zm35.25 18.308v-8.783l32.313-9.525v8.783l-32.312 9.525zm-8.813-76.693h5.875v2.969h-5.875v-2.969zM4.785 39.473h10.281c0 4.092 3.294 7.422 7.344 7.422h4.406c2.429 0 4.406 1.998 4.406 4.453v2.354l-3.368-3.404-2.077 2.099 5.875 5.938c.286.289.662.435 1.038.435s.752-.145 1.038-.435l5.875-5.937-2.077-2.099-3.368 3.404v-2.354c0-4.093-3.294-7.422-7.344-7.422H22.41c-2.429 0-4.406-1.998-4.406-4.453h10.281c.812 0 1.469-.665 1.469-1.484V14.24a1.49 1.49 0 0 0-.43-1.049l-8.812-8.906c-.275-.279-.648-.435-1.038-.435H4.785c-.812 0-1.469.665-1.469 1.484V37.99c0 .819.657 1.484 1.469 1.484zM20.941 8.915l3.798 3.839h-3.798V8.915zM6.254 6.816h11.75v7.422c0 .819.656 1.484 1.469 1.484h7.344v20.781H6.254V6.816zm2.937 11.875h14.687v2.969H9.191v-2.969zm0 5.938h14.687v2.969H9.191v-2.969zm0 5.937h14.687v2.969H9.191v-2.969zm0-17.812h5.875v2.969H9.191v-2.969zm82.25 25.234v-23.75a1.49 1.49 0 0 0-.43-1.049l-8.812-8.906c-.275-.279-.648-.435-1.038-.435H66.473c-.812 0-1.469.665-1.469 1.484v32.656c0 .819.657 1.484 1.469 1.484h10.281c0 2.455-1.977 4.453-4.406 4.453h-4.406c-4.049 0-7.344 3.329-7.344 7.422v2.354l-3.368-3.404-2.077 2.099 5.875 5.938c.286.289.662.435 1.038.435s.752-.145 1.038-.435l5.875-5.937-2.077-2.099-3.368 3.404v-2.354c0-2.455 1.977-4.453 4.406-4.453h4.406c4.049 0 7.344-3.329 7.344-7.422h10.281c.812 0 1.469-.665 1.469-1.484zM82.629 8.915l3.798 3.839h-3.798V8.915zM67.941 36.504V6.816h11.75v7.422c0 .819.657 1.484 1.469 1.484h7.344v20.781H67.941zm2.938-17.813h14.688v2.969H70.879v-2.969zm0 5.938h14.688v2.969H70.879v-2.969zm0 5.937h14.688v2.969H70.879v-2.969zm0-17.812h5.875v2.969h-5.875v-2.969zM40.035 30.566h2.938v2.969h-2.937v-2.969zm5.875 0h2.938v2.969H45.91v-2.969zm5.875 0h2.938v2.969h-2.937v-2.969z"/></svg>