<svg xmlns="http://www.w3.org/2000/svg" width="85" height="85" fill="none" xmlns:v="https://vecta.io/nano"><g clip-path="url(#A)" fill="#fcdad8"><path d="M79.785 47.344c2.556-.413 4.514-2.634 4.514-5.304s-1.958-4.891-4.514-5.304c-1.081-7.673-4.547-14.904-9.862-20.58l6.175-6.175a5.34 5.34 0 0 0 2.827.806 5.38 5.38 0 0 0 5.374-5.374A5.38 5.38 0 0 0 78.925.04a5.38 5.38 0 0 0-5.374 5.374 5.34 5.34 0 0 0 .806 2.827l-6.175 6.175a37.96 37.96 0 0 0-20.58-9.862C47.19 1.999 44.969.04 42.298.04s-4.891 1.958-5.304 4.514a37.96 37.96 0 0 0-20.58 9.862l-6.175-6.175a5.34 5.34 0 0 0 .806-2.827A5.38 5.38 0 0 0 5.672.04 5.38 5.38 0 0 0 .298 5.414a5.38 5.38 0 0 0 5.374 5.374 5.34 5.34 0 0 0 2.827-.807l6.175 6.175c-5.315 5.676-8.782 12.906-9.862 20.58C2.257 37.149.298 39.37.298 42.04s1.958 4.891 4.514 5.304c1.081 7.673 4.547 14.904 9.862 20.58l-6.175 6.175a5.34 5.34 0 0 0-2.827-.806 5.38 5.38 0 0 0-5.374 5.374 5.38 5.38 0 0 0 5.374 5.374 5.38 5.38 0 0 0 5.374-5.374 5.34 5.34 0 0 0-.806-2.827l6.175-6.175c5.676 5.315 12.906 8.782 20.58 9.862.413 2.556 2.634 4.514 5.304 4.514s4.891-1.958 5.304-4.514c7.673-1.081 14.904-4.547 20.58-9.862l6.175 6.175a5.34 5.34 0 0 0-.806 2.827 5.38 5.38 0 0 0 5.374 5.374 5.38 5.38 0 0 0 5.374-5.374 5.38 5.38 0 0 0-5.374-5.374 5.34 5.34 0 0 0-2.827.806l-6.175-6.175a37.96 37.96 0 0 0 9.862-20.58zM42.298 73.293c-2.405 0-4.447 1.589-5.13 3.772C21.831 74.828 9.511 62.508 7.274 47.17c2.183-.683 3.772-2.724 3.772-5.13s-1.589-4.447-3.772-5.13C9.511 21.573 21.831 9.253 37.168 7.016c.683 2.183 2.724 3.772 5.13 3.772s4.447-1.589 5.13-3.772C62.766 9.253 75.086 21.573 77.323 36.91c-2.183.683-3.772 2.724-3.772 5.13s1.589 4.447 3.772 5.13c-2.237 15.337-14.557 27.658-29.895 29.895-.683-2.183-2.724-3.772-5.13-3.772zM81.837 42.04a2.92 2.92 0 0 1-2.913 2.913 2.92 2.92 0 0 1-2.913-2.913 2.92 2.92 0 0 1 2.913-2.913 2.92 2.92 0 0 1 2.913 2.913zM78.925 2.501a2.92 2.92 0 0 1 2.913 2.913 2.92 2.92 0 0 1-2.913 2.913 2.92 2.92 0 0 1-2.913-2.913 2.92 2.92 0 0 1 2.913-2.913zm-36.626 0a2.92 2.92 0 0 1 2.913 2.913 2.92 2.92 0 0 1-2.913 2.913 2.92 2.92 0 0 1-2.913-2.913 2.92 2.92 0 0 1 2.913-2.913zM2.759 5.414a2.92 2.92 0 0 1 2.913-2.913 2.92 2.92 0 0 1 2.913 2.913 2.92 2.92 0 0 1-2.913 2.913 2.92 2.92 0 0 1-2.913-2.913zm0 36.626a2.92 2.92 0 0 1 2.913-2.913 2.92 2.92 0 0 1 2.913 2.913 2.92 2.92 0 0 1-2.913 2.913 2.92 2.92 0 0 1-2.913-2.913zm2.913 39.539a2.92 2.92 0 0 1-2.913-2.913 2.92 2.92 0 0 1 2.913-2.913 2.92 2.92 0 0 1 2.913 2.913 2.92 2.92 0 0 1-2.913 2.913zm36.626 0a2.92 2.92 0 0 1-2.913-2.913 2.92 2.92 0 0 1 2.913-2.913 2.92 2.92 0 0 1 2.913 2.913 2.92 2.92 0 0 1-2.913 2.913zm39.539-2.913a2.92 2.92 0 0 1-2.913 2.913 2.92 2.92 0 0 1-2.913-2.913 2.92 2.92 0 0 1 2.913-2.913 2.92 2.92 0 0 1 2.913 2.913zM66.45 50.896a1.23 1.23 0 0 0-1.612.655c-.799 1.892-1.819 3.643-3.018 5.232-1.976-1.309-4.121-2.407-6.382-3.279.792-3.176 1.249-6.642 1.334-10.233h9.952a24.62 24.62 0 0 1-.331 2.99 1.23 1.23 0 0 0 1.002 1.423c.071.012.142.018.212.018a1.23 1.23 0 0 0 1.211-1.02 27.2 27.2 0 0 0 .399-4.642 26.79 26.79 0 0 0-6.109-17.056c-.014-.022-.027-.045-.043-.066-.053-.074-.114-.14-.179-.199-4.942-5.864-12.336-9.597-20.587-9.597-9.334 0-17.868 4.728-22.828 12.648a1.231 1.231 0 0 0 2.086 1.306c.385-.614.794-1.205 1.225-1.776a33.17 33.17 0 0 0 6.378 3.277c-.792 3.176-1.249 6.642-1.334 10.233h-9.952a24.37 24.37 0 0 1 1.316-6.799 1.231 1.231 0 1 0-2.325-.808 26.86 26.86 0 0 0-1.484 8.837c0 6.468 2.293 12.41 6.109 17.057.014.022.027.044.042.066a1.24 1.24 0 0 0 .179.199c4.942 5.864 12.337 9.597 20.588 9.597a26.88 26.88 0 0 0 24.807-16.45 1.23 1.23 0 0 0-.654-1.612zm-13.345 1.8a36.8 36.8 0 0 0-9.577-1.59V43.27H54.31c-.082 3.313-.494 6.503-1.205 9.425zm-35.234-9.425h9.953c.085 3.591.542 7.056 1.334 10.233-2.256.87-4.396 1.965-6.369 3.27-2.873-3.794-4.666-8.449-4.918-13.503zm12.414 0h10.782v7.836a36.8 36.8 0 0 0-9.577 1.59c-.711-2.922-1.123-6.112-1.205-9.425zm10.782 10.298v12.796c-2.609-.562-5.077-2.899-7.051-6.724-.72-1.395-1.341-2.932-1.862-4.576a34.32 34.32 0 0 1 8.913-1.496zm2.461 12.796V53.568a34.31 34.31 0 0 1 8.913 1.496c-.521 1.643-1.142 3.181-1.862 4.576-1.974 3.825-4.442 6.162-7.051 6.724zm7.051-41.924c.72 1.395 1.341 2.932 1.862 4.575-2.843.879-5.85 1.388-8.913 1.496V17.716c2.609.562 5.077 2.899 7.051 6.724zm-9.512-6.724v12.796c-3.063-.108-6.07-.617-8.913-1.496.521-1.643 1.142-3.181 1.862-4.576 1.975-3.825 4.442-6.163 7.051-6.724zm2.461 15.258c3.288-.108 6.518-.65 9.577-1.59.711 2.923 1.123 6.113 1.205 9.425H43.529v-7.836zm23.196 7.836h-9.953c-.085-3.591-.541-7.056-1.334-10.233 2.256-.87 4.396-1.965 6.369-3.27 2.873 3.795 4.666 8.449 4.918 13.503zM60.212 25.41c-1.697 1.1-3.525 2.034-5.448 2.792-.558-1.752-1.226-3.393-1.998-4.889-.945-1.831-2.01-3.377-3.165-4.615 4.107 1.288 7.75 3.632 10.611 6.712zm-35.846-.011c2.915-3.153 6.579-5.455 10.64-6.714-1.16 1.241-2.228 2.79-3.177 4.627-.772 1.496-1.44 3.137-1.998 4.889-1.929-.76-3.763-1.698-5.465-2.802zm7.124 5.986a36.79 36.79 0 0 0 9.577 1.59v7.836H30.286c.082-3.313.494-6.503 1.205-9.425zm-7.107 27.287c1.697-1.099 3.525-2.034 5.448-2.792.559 1.752 1.226 3.393 1.998 4.889.945 1.831 2.01 3.377 3.165 4.615-4.107-1.287-7.75-3.632-10.611-6.712zm25.215 6.716c1.156-1.239 2.222-2.786 3.168-4.619.772-1.496 1.44-3.137 1.998-4.889 1.929.76 3.763 1.698 5.465 2.802-2.893 3.12-6.557 5.435-10.631 6.705z"/></g><defs><clipPath id="A"><path fill="#fff" transform="translate(.298 .04)" d="M0 0h84v84H0z"/></clipPath></defs></svg>