<svg width="60" height="59" viewBox="0 0 60 59" fill="none" xmlns="http://www.w3.org/2000/svg">
<g clip-path="url(#clip0_4495_187)">
<path d="M56.1067 33.2103C57.8891 32.9224 59.2549 31.3735 59.2549 29.511C59.2549 27.6485 57.8891 26.0996 56.1067 25.8117C55.3529 20.4598 52.9354 15.4169 49.2283 11.4582L53.5353 7.15123C54.1084 7.50732 54.784 7.71363 55.507 7.71363C57.5736 7.71363 59.2549 6.03236 59.2549 3.9657C59.2549 1.89904 57.5736 0.217773 55.507 0.217773C53.4403 0.217773 51.759 1.89904 51.759 3.9657C51.759 4.68876 51.9653 5.36422 52.3214 5.93739L48.0144 10.2444C44.0557 6.53721 39.0129 4.11972 33.661 3.36599C33.3731 1.58357 31.8242 0.217773 29.9617 0.217773C28.0991 0.217773 26.5503 1.58357 26.2624 3.36599C20.9104 4.11972 15.8676 6.53721 11.9089 10.2445L7.60191 5.9375C7.958 5.36434 8.16443 4.68876 8.16443 3.96582C8.16432 1.89904 6.48305 0.217773 4.41639 0.217773C2.34973 0.217773 0.668457 1.89904 0.668457 3.9657C0.668457 6.03236 2.34973 7.71363 4.41639 7.71363C5.13945 7.71363 5.81491 7.50732 6.38819 7.15111L10.6952 11.4581C6.98801 15.4168 4.5704 20.4597 3.81679 25.8116C2.03425 26.0996 0.668457 27.6485 0.668457 29.511C0.668457 31.3735 2.03425 32.9224 3.81668 33.2103C4.57029 38.5621 6.9879 43.605 10.6951 47.5637L6.38807 51.8708C5.81479 51.5147 5.13933 51.3082 4.41627 51.3082C2.34973 51.3083 0.668457 52.9897 0.668457 55.0563C0.668457 57.1228 2.34973 58.8042 4.41639 58.8042C6.48305 58.8042 8.16432 57.1229 8.16432 55.0563C8.16432 54.3332 7.958 53.6577 7.60179 53.0846L11.9088 48.7776C15.8675 52.4848 20.9104 54.9024 26.2623 55.656C26.5503 57.4384 28.0991 58.8042 29.9617 58.8042C31.8242 58.8042 33.3731 57.4384 33.661 55.656C39.0128 54.9023 44.0557 52.4848 48.0144 48.7776L52.3214 53.0846C51.9653 53.6579 51.759 54.3333 51.759 55.0563C51.759 57.1229 53.4403 58.8042 55.507 58.8042C57.5736 58.8042 59.2549 57.1229 59.2549 55.0563C59.2549 52.9896 57.5736 51.3083 55.507 51.3083C54.7839 51.3083 54.1084 51.5147 53.5353 51.8708L49.2283 47.5637C52.9354 43.605 55.3529 38.5622 56.1067 33.2103ZM29.9617 51.3083C28.2839 51.3083 26.8603 52.4165 26.3838 53.9392C15.6864 52.3788 7.09385 43.7862 5.53342 33.0889C7.05621 32.6124 8.16432 31.1887 8.16432 29.511C8.16432 27.8333 7.05621 26.4096 5.53342 25.9331C7.09385 15.2358 15.6865 6.64317 26.3838 5.08274C26.8603 6.60552 28.2839 7.71363 29.9617 7.71363C31.6394 7.71363 33.0631 6.60552 33.5396 5.08274C44.2368 6.64306 52.8296 15.2358 54.3899 25.9331C52.8671 26.4096 51.759 27.8333 51.759 29.511C51.759 31.1887 52.8671 32.6124 54.3899 33.0889C52.8296 43.7862 44.2368 52.3789 33.5396 53.9392C33.0631 52.4165 31.6394 51.3083 29.9617 51.3083ZM57.5385 29.511C57.5385 30.6311 56.6271 31.5425 55.507 31.5425C54.3868 31.5425 53.4754 30.6311 53.4754 29.511C53.4754 28.3909 54.3868 27.4795 55.507 27.4795C56.6271 27.4795 57.5385 28.3909 57.5385 29.511ZM55.507 1.93417C56.6271 1.93417 57.5385 2.84558 57.5385 3.9657C57.5385 5.08582 56.6271 5.99723 55.507 5.99723C54.3868 5.99723 53.4754 5.08582 53.4754 3.9657C53.4754 2.84558 54.3868 1.93417 55.507 1.93417ZM29.9617 1.93417C31.0818 1.93417 31.9932 2.84558 31.9932 3.9657C31.9932 5.08582 31.0818 5.99723 29.9617 5.99723C28.8414 5.99723 27.9301 5.08582 27.9301 3.9657C27.9301 2.84558 28.8414 1.93417 29.9617 1.93417ZM2.38486 3.9657C2.38486 2.84558 3.29615 1.93417 4.41639 1.93417C5.53662 1.93417 6.44792 2.84558 6.44792 3.9657C6.44792 5.08582 5.53662 5.99723 4.41639 5.99723C3.29615 5.99723 2.38486 5.08582 2.38486 3.9657ZM2.38486 29.511C2.38486 28.3909 3.29615 27.4795 4.41639 27.4795C5.53662 27.4795 6.44792 28.3909 6.44792 29.511C6.44792 30.6311 5.53662 31.5425 4.41639 31.5425C3.29615 31.5425 2.38486 30.6311 2.38486 29.511ZM4.41639 57.0878C3.29615 57.0878 2.38486 56.1764 2.38486 55.0563C2.38486 53.9361 3.29615 53.0247 4.41639 53.0247C5.53662 53.0247 6.44792 53.9361 6.44792 55.0563C6.44792 56.1764 5.53662 57.0878 4.41639 57.0878ZM29.9617 57.0878C28.8414 57.0878 27.9301 56.1764 27.9301 55.0563C27.9301 53.9361 28.8414 53.0247 29.9617 53.0247C31.0818 53.0247 31.9932 53.9361 31.9932 55.0563C31.9932 56.1764 31.0818 57.0878 29.9617 57.0878ZM57.5385 55.0563C57.5385 56.1764 56.6271 57.0878 55.507 57.0878C54.3868 57.0878 53.4754 56.1764 53.4754 55.0563C53.4754 53.9361 54.3868 53.0247 55.507 53.0247C56.6271 53.0247 57.5385 53.9361 57.5385 55.0563Z" fill="#016677"/>
<path d="M46.8069 35.6875C46.3703 35.5033 45.8669 35.7075 45.6823 36.1441C45.1247 37.4639 44.4134 38.6847 43.5774 39.7931C42.199 38.88 40.7035 38.1142 39.1262 37.5059C39.6788 35.2906 39.9972 32.8735 40.0565 30.3691H46.9975C46.9626 31.0704 46.8861 31.7689 46.7668 32.4545C46.6857 32.9214 46.9984 33.3658 47.4654 33.447C47.5152 33.4556 47.5645 33.4597 47.6133 33.4597C48.0228 33.4597 48.3853 33.1657 48.4579 32.7483C48.6424 31.6866 48.7361 30.5974 48.7361 29.5109C48.7361 24.9998 47.1365 20.8558 44.4753 17.6149C44.4657 17.5994 44.4564 17.5837 44.4456 17.5687C44.4084 17.5169 44.3661 17.4709 44.3205 17.4301C40.874 13.3399 35.7165 10.7363 29.9617 10.7363C23.4517 10.7363 17.4997 14.034 14.0398 19.5577C13.7882 19.9595 13.9098 20.489 14.3115 20.7406C14.7134 20.992 15.243 20.8705 15.4944 20.4689C15.7626 20.0407 16.0484 19.6285 16.3485 19.2303C17.7261 20.1427 19.2208 20.9079 20.797 21.5159C20.2445 23.7312 19.926 26.1482 19.8667 28.6527H12.9255C13.0057 27.0298 13.3131 25.4383 13.8437 23.9108C13.9992 23.4632 13.7624 22.974 13.3145 22.8185C12.8673 22.6629 12.3778 22.8998 12.2223 23.3476C11.5353 25.325 11.187 27.3987 11.187 29.5109C11.187 34.0219 12.7866 38.1662 15.4479 41.4071C15.4575 41.4226 15.4668 41.4381 15.4776 41.4531C15.5147 41.505 15.557 41.5508 15.6025 41.5918C19.0493 45.682 24.2067 48.2855 29.9616 48.2855C37.5274 48.2855 44.3188 43.7821 47.2633 36.8121C47.4478 36.3754 47.2434 35.872 46.8069 35.6875ZM37.4995 36.9429C35.3659 36.2875 33.1129 35.9098 30.8199 35.8342V30.3691H38.34C38.2829 32.6797 37.9957 34.9046 37.4995 36.9429ZM12.925 30.3691H19.8667C19.926 32.8735 20.2445 35.2907 20.797 37.5059C19.2234 38.1128 17.7311 38.8765 16.3552 39.7868C14.3516 37.1404 13.1006 33.8941 12.925 30.3691ZM21.5835 30.3691H29.1035V35.8342C26.8105 35.9098 24.5574 36.2875 22.4238 36.9429C21.9278 34.9046 21.6406 32.6797 21.5835 30.3691ZM29.1035 37.5512V46.4759C27.2835 46.0842 25.5627 44.4541 24.1855 41.786C23.6833 40.813 23.2501 39.741 22.8869 38.5947C24.8698 37.9818 26.9668 37.6265 29.1035 37.5512ZM30.8199 46.4759V37.5512C32.9566 37.6265 35.0535 37.9818 37.0364 38.5949C36.6733 39.7411 36.24 40.8131 35.7378 41.7861C34.3607 44.4541 32.6398 46.0842 30.8199 46.4759ZM35.7378 17.2358C36.24 18.2087 36.6733 19.2807 37.0364 20.4269C35.0535 21.04 32.9566 21.3953 30.8199 21.4706V12.5459C32.6398 12.9376 34.3607 14.5677 35.7378 17.2358ZM29.1035 12.5459V21.4706C26.9668 21.3953 24.8698 21.04 22.8869 20.4269C23.2501 19.2807 23.6833 18.2086 24.1855 17.2356C25.5627 14.5677 27.2835 12.9376 29.1035 12.5459ZM30.8199 23.1875C33.1129 23.1119 35.3659 22.7343 37.4995 22.0789C37.9956 24.1171 38.2829 26.3421 38.34 28.6527H30.8199V23.1875ZM46.9983 28.6527H40.0566C39.9973 26.1482 39.6789 23.7311 39.1263 21.5158C40.6999 20.9089 42.1923 20.1452 43.5681 19.2349C45.5718 21.8814 46.8228 25.1276 46.9983 28.6527ZM42.4564 17.9112C41.2729 18.6781 39.998 19.3299 38.6567 19.8582C38.2672 18.6362 37.8015 17.4916 37.263 16.4485C36.6038 15.1713 35.8612 14.0934 35.0555 13.2297C37.9198 14.1277 40.4607 15.7629 42.4564 17.9112ZM17.4553 17.9038C19.4885 15.7045 22.044 14.0992 24.876 13.2211C24.0671 14.0863 23.3217 15.1669 22.6603 16.4485C22.122 17.4917 21.6561 18.6362 21.2666 19.8583C19.921 19.3282 18.6421 18.6739 17.4553 17.9038ZM22.4238 22.0789C24.5574 22.7343 26.8104 23.1119 29.1035 23.1875V28.6527H21.5835C21.6406 26.3421 21.9278 24.1171 22.4238 22.0789ZM17.467 41.1105C18.6505 40.3436 19.9253 39.6918 21.2666 39.1634C21.6561 40.3854 22.1218 41.53 22.6603 42.5732C23.3196 43.8505 24.0621 44.9284 24.8677 45.7921C22.0035 44.894 19.4628 43.2589 17.467 41.1105ZM35.0531 45.7947C35.8597 44.9305 36.6031 43.8519 37.263 42.5734C37.8014 41.5301 38.2672 40.3856 38.6567 39.1636C40.0024 39.6936 41.2812 40.3479 42.468 41.1181C40.45 43.2941 37.895 44.9092 35.0531 45.7947Z" fill="#016677"/>
</g>
<defs>
<clipPath id="clip0_4495_187">
<rect width="58.5864" height="58.5864" fill="white" transform="translate(0.668457 0.217773)"/>
</clipPath>
</defs>
</svg>
