<svg xmlns="http://www.w3.org/2000/svg" width="55" height="72" fill="#fcdad8" xmlns:v="https://vecta.io/nano"><path d="M54.16 38.757a2.38 2.38 0 0 0-2.378-2.378 2.38 2.38 0 0 0-2.378 2.378c0 5.863-2.329 11.486-6.475 15.631a22.11 22.11 0 0 1-15.631 6.475c-5.862 0-11.486-2.329-15.631-6.475a22.11 22.11 0 0 1-6.475-15.631 2.38 2.38 0 0 0-2.378-2.378 2.38 2.38 0 0 0-2.378 2.378 26.91 26.91 0 0 0 24.485 26.744v3.865a2.38 2.38 0 0 0 2.378 2.378 2.38 2.38 0 0 0 2.378-2.378v-3.865A26.91 26.91 0 0 0 54.16 38.757zM27.298 56.105a17.37 17.37 0 0 0 12.261-5.089c3.252-3.253 5.082-7.662 5.088-12.261v-21.31c-.951-23.01-33.748-23.022-34.699 0v21.31a17.37 17.37 0 0 0 5.089 12.261 17.38 17.38 0 0 0 12.261 5.089zM14.705 17.446c.69-16.648 24.497-16.648 25.186 0v21.31c0 3.34-1.327 6.543-3.688 8.905a12.59 12.59 0 0 1-8.905 3.688c-3.34 0-6.543-1.327-8.905-3.688a12.59 12.59 0 0 1-3.688-8.905v-21.31z"/></svg>