<svg width="48" height="64" viewBox="0 0 48 64" fill="none" xmlns="http://www.w3.org/2000/svg">
<path d="M47.7876 33.9706C47.7876 33.4152 47.567 32.8826 47.1742 32.4898C46.7815 32.0971 46.2488 31.8765 45.6934 31.8765C45.138 31.8765 44.6053 32.0971 44.2126 32.4898C43.8199 32.8826 43.5992 33.4152 43.5992 33.9706C43.5992 39.1332 41.5484 44.0843 37.8979 47.7348C34.2475 51.3853 29.2963 53.4361 24.1338 53.4361C18.9712 53.4361 14.0201 51.3853 10.3696 47.7348C6.71917 44.0843 4.66835 39.1332 4.66835 33.9706C4.66835 33.4152 4.44771 32.8826 4.05498 32.4898C3.66224 32.0971 3.12958 31.8765 2.57416 31.8765C2.01875 31.8765 1.48609 32.0971 1.09335 32.4898C0.700617 32.8826 0.47998 33.4152 0.47998 33.9706C0.492473 39.8767 2.71009 45.5652 6.69825 49.9214C10.6864 54.2775 16.1576 56.9874 22.0396 57.5197V60.9228C22.0396 61.4782 22.2602 62.0109 22.653 62.4036C23.0457 62.7963 23.5784 63.017 24.1338 63.017C24.6892 63.017 25.2219 62.7963 25.6146 62.4036C26.0073 62.0109 26.228 61.4782 26.228 60.9228V57.5197C32.11 56.9874 37.5812 54.2775 41.5693 49.9214C45.5575 45.5652 47.7751 39.8767 47.7876 33.9706Z" fill="#016677"/>
<path d="M24.1345 49.2467C28.1845 49.2411 32.0671 47.6298 34.9309 44.766C37.7947 41.9022 39.406 38.0196 39.4116 33.9696V15.2057C38.5739 -5.05552 9.6951 -5.06599 8.85742 15.2057V33.9696C8.86296 38.0196 10.4743 41.9022 13.3381 44.766C16.2019 47.6298 20.0845 49.2411 24.1345 49.2467ZM13.0458 15.2057C13.6531 0.546421 34.6159 0.546421 35.2232 15.2057V33.9696C35.2232 36.9105 34.0549 39.731 31.9754 41.8105C29.8959 43.89 27.0754 45.0583 24.1345 45.0583C21.1936 45.0583 18.3731 43.89 16.2936 41.8105C14.2141 39.731 13.0458 36.9105 13.0458 33.9696V15.2057Z" fill="#016677"/>
</svg>
