<svg width="98" height="97" viewBox="0 0 98 97" fill="none" xmlns="http://www.w3.org/2000/svg">
<g id="deep-learning_3581315 1">
<path id="Vector" d="M82.0444 47.0325H80.5288V45.5325C80.5288 45.1346 80.3691 44.7531 80.0849 44.4718C79.8007 44.1905 79.4152 44.0325 79.0132 44.0325H75.9819C76.3179 43.0483 76.5997 42.0468 76.8261 41.0325H80.5288C80.9308 41.0325 81.3163 40.8744 81.6005 40.5931C81.8848 40.3118 82.0444 39.9303 82.0444 39.5325V30.5325C82.0444 30.1346 81.8848 29.7531 81.6005 29.4718C81.3163 29.1905 80.9308 29.0325 80.5288 29.0325H76.8261C76.1089 25.6701 74.7731 22.4668 72.8855 19.5825L75.5 16.995C75.7841 16.7137 75.9437 16.3322 75.9437 15.9345C75.9437 15.5367 75.7841 15.1553 75.5 14.874L69.0631 8.51547C68.7789 8.23426 68.3934 8.07629 67.9916 8.07629C67.5897 8.07629 67.2042 8.23426 66.92 8.51547L64.3116 11.103C61.3963 9.23661 58.16 7.91478 54.7632 7.20297V3.53247C54.7632 3.13465 54.6035 2.75311 54.3193 2.47181C54.035 2.19051 53.6495 2.03247 53.2476 2.03247H44.1538C43.7518 2.03247 43.3663 2.19051 43.0821 2.47181C42.7979 2.75311 42.6382 3.13465 42.6382 3.53247V7.19547C39.2414 7.90728 36.0051 9.22911 33.0897 11.0955L30.4814 8.51547C30.1918 8.24446 29.8084 8.09346 29.4098 8.09346C29.0113 8.09346 28.6278 8.24446 28.3383 8.51547L21.9075 14.88C21.6233 15.1613 21.4637 15.5427 21.4637 15.9405C21.4637 16.3382 21.6233 16.7197 21.9075 17.001L24.5219 19.5825C22.6343 22.4668 21.2985 25.6701 20.5813 29.0325H16.8726C16.4706 29.0325 16.0851 29.1905 15.8009 29.4718C15.5166 29.7531 15.3569 30.1346 15.3569 30.5325V39.5325C15.3569 39.9303 15.5166 40.3118 15.8009 40.5931C16.0851 40.8744 16.4706 41.0325 16.8726 41.0325H20.5752C20.8017 42.0468 21.0835 43.0483 21.4194 44.0325H18.3882C17.9862 44.0325 17.6007 44.1905 17.3165 44.4718C17.0322 44.7531 16.8726 45.1346 16.8726 45.5325V47.0325H15.3569C14.151 47.0325 12.9945 47.5066 12.1418 48.3505C11.2891 49.1944 10.8101 50.339 10.8101 51.5325V90.5325C10.8101 91.7259 11.2891 92.8705 12.1418 93.7144C12.9945 94.5584 14.151 95.0325 15.3569 95.0325H82.0444C83.2503 95.0325 84.4069 94.5584 85.2596 93.7144C86.1123 92.8705 86.5913 91.7259 86.5913 90.5325V51.5325C86.5913 50.339 86.1123 49.1944 85.2596 48.3505C84.4069 47.5066 83.2503 47.0325 82.0444 47.0325ZM32.9594 44.0325C31.3594 41.2964 30.5157 38.1915 30.5132 35.0303C30.5107 31.869 31.3494 28.7629 32.9451 26.0243C34.5407 23.2857 36.837 21.0114 39.6028 19.43C42.3686 17.8487 45.5065 17.0161 48.7007 17.0161C51.8949 17.0161 55.0327 17.8487 57.7986 19.43C60.5644 21.0114 62.8606 23.2857 64.4563 26.0243C66.0519 28.7629 66.8907 31.869 66.8882 35.0303C66.8857 38.1915 66.042 41.2964 64.442 44.0325H60.8954C61.0561 43.7715 61.2091 43.5075 61.3804 43.2495C62.8989 40.9567 63.7536 38.2959 63.8514 35.5561C63.9492 32.8164 63.2865 30.1025 61.9353 27.7093C60.5841 25.3162 58.596 23.3353 56.1871 21.9818C53.7782 20.6284 51.0406 19.9542 48.2718 20.0325C44.3562 20.1721 40.6444 21.795 37.9036 24.566C35.1627 27.337 33.6021 31.0442 33.5444 34.9215C33.5185 37.8923 34.3881 40.8032 36.0422 43.2825C36.2074 43.53 36.3544 43.782 36.509 44.0325H32.9594ZM38.5672 41.6325C37.2458 39.6482 36.5524 37.3189 36.5757 34.9425C36.6215 31.8408 37.8697 28.8751 40.0623 26.6585C42.255 24.4418 45.2243 23.1437 48.3566 23.0325C49.9776 22.9869 51.5914 23.2637 53.1024 23.8463C54.6134 24.4289 55.991 25.3056 57.1536 26.4245C58.3162 27.5434 59.2402 28.8817 59.8709 30.3602C60.5017 31.8388 60.8263 33.4275 60.8257 35.0325C60.829 37.3669 60.1408 39.6511 58.8463 41.6025C57.7156 43.2994 56.7903 45.1219 56.0894 47.0325H41.3211C40.6255 45.1304 39.7025 43.3175 38.5718 41.6325H38.5672ZM54.8011 53.0325H42.6003C42.5355 52.0239 42.3972 51.0213 42.1865 50.0325H55.2209C55.0077 51.0211 54.8674 52.0237 54.8011 53.0325ZM53.8265 56.0325L52.3109 59.0325H45.0905L43.5748 56.0325H53.8265ZM50.2163 62.0325H53.2476C53.5305 62.034 53.8082 61.9571 54.0493 61.8105C54.2904 61.6639 54.4852 61.4535 54.6116 61.203L57.6429 55.203H57.6277C57.7364 54.9958 57.7936 54.7659 57.7944 54.5325V54.255C57.821 51.7696 58.3476 49.3143 59.3434 47.0325H77.4976V86.0325H58.7038C55.7637 86.034 52.8621 86.694 50.2163 87.963V62.0325ZM23.3231 39.2835C23.2636 38.9338 23.0808 38.6162 22.8073 38.3872C22.5337 38.1582 22.187 38.0325 21.8287 38.0325H18.3882V32.0325H21.8287C22.187 32.0324 22.5337 31.9067 22.8073 31.6777C23.0808 31.4487 23.2636 31.1312 23.3231 30.7815C23.9602 26.9956 25.4636 23.4041 27.7184 20.2815C27.9263 19.9926 28.0241 19.6402 27.9944 19.2868C27.9647 18.9334 27.8095 18.6019 27.5562 18.351L25.1312 15.951L29.4189 11.7075L31.8439 14.1075C32.0973 14.3577 32.432 14.5111 32.7888 14.5405C33.1455 14.5699 33.5013 14.4733 33.793 14.268C36.9486 12.0373 40.5774 10.5495 44.4024 9.91797C44.7565 9.8597 45.0783 9.67889 45.3103 9.40777C45.5424 9.13664 45.6696 8.79279 45.6694 8.43747V5.03247H51.7319V8.43747C51.732 8.79209 51.859 9.13523 52.0904 9.40599C52.3218 9.67674 52.6426 9.8576 52.996 9.91647C56.821 10.548 60.4497 12.0358 63.6053 14.2665C63.897 14.4718 64.2528 14.5684 64.6095 14.539C64.9663 14.5096 65.301 14.3562 65.5544 14.106L67.9794 11.706L72.2671 15.9495L69.8421 18.3495C69.5889 18.6004 69.4336 18.9319 69.4039 19.2853C69.3743 19.6388 69.472 19.9911 69.68 20.28C71.9347 23.4026 73.4381 26.9941 74.0753 30.78C74.1345 31.1305 74.3176 31.4487 74.5918 31.6781C74.866 31.9075 75.2137 32.0331 75.5727 32.0325H79.0132V38.0325H75.5727C75.2144 38.0325 74.8677 38.1582 74.5941 38.3872C74.3205 38.6162 74.1378 38.9338 74.0783 39.2835C73.7893 40.9053 73.3426 42.4957 72.7446 44.0325H67.8658C69.4026 40.8315 70.096 37.2977 69.8812 33.7602C69.6665 30.2226 68.5507 26.7964 66.6377 23.8006C64.7247 20.8048 62.0767 18.3368 58.9404 16.6266C55.8041 14.9164 52.2815 14.0195 48.7007 14.0195C45.1198 14.0195 41.5972 14.9164 38.4609 16.6266C35.3246 18.3368 32.6767 20.8048 30.7637 23.8006C28.8507 26.7964 27.7348 30.2226 27.5201 33.7602C27.3054 37.2977 27.9987 40.8315 29.5356 44.0325H24.6568C24.058 42.4959 23.6114 40.9054 23.3231 39.2835ZM19.9038 47.0325H38.0671C39.0597 49.3139 39.5832 51.7681 39.6069 54.252V54.5325C39.6111 54.7645 39.6708 54.9922 39.7812 55.197H39.7661L42.7973 61.197C42.9224 61.4474 43.1156 61.6584 43.3553 61.806C43.595 61.9536 43.8715 62.032 44.1538 62.0325H47.1851V87.963C44.5393 86.694 41.6377 86.034 38.6976 86.0325H19.9038V47.0325ZM83.5601 90.5325C83.5601 90.9303 83.4004 91.3118 83.1161 91.5931C82.8319 91.8744 82.4464 92.0325 82.0444 92.0325H15.3569C14.955 92.0325 14.5695 91.8744 14.2852 91.5931C14.001 91.3118 13.8413 90.9303 13.8413 90.5325V51.5325C13.8413 51.1346 14.001 50.7531 14.2852 50.4718C14.5695 50.1905 14.955 50.0325 15.3569 50.0325H16.8726V87.5325C16.8726 87.9303 17.0322 88.3118 17.3165 88.5931C17.6007 88.8744 17.9862 89.0325 18.3882 89.0325H38.6976C41.9615 89.03 45.1528 89.9864 47.8671 91.7805C48.1162 91.9449 48.4089 92.0327 48.7083 92.0327C49.0077 92.0327 49.3004 91.9449 49.5494 91.7805C52.2594 89.9892 55.445 89.0329 58.7038 89.0325H79.0132C79.4152 89.0325 79.8007 88.8744 80.0849 88.5931C80.3691 88.3118 80.5288 87.9303 80.5288 87.5325V50.0325H82.0444C82.4464 50.0325 82.8319 50.1905 83.1161 50.4718C83.4004 50.7531 83.5601 51.1346 83.5601 51.5325V90.5325Z" fill="#FCDAD8"/>
<path id="Vector_2" d="M22.9351 65.0325H41.1226V68.0325H22.9351V65.0325Z" fill="#FCDAD8"/>
<path id="Vector_3" d="M25.9663 59.0325H38.0913V62.0325H25.9663V59.0325Z" fill="#FCDAD8"/>
<path id="Vector_4" d="M59.3101 59.0325H71.4351V62.0325H59.3101V59.0325Z" fill="#FCDAD8"/>
<path id="Vector_5" d="M22.9351 71.0325H41.1226V74.0325H22.9351V71.0325Z" fill="#FCDAD8"/>
<path id="Vector_6" d="M22.9351 77.0325H41.1226V80.0325H22.9351V77.0325Z" fill="#FCDAD8"/>
<path id="Vector_7" d="M56.2788 65.0325H74.4663V68.0325H56.2788V65.0325Z" fill="#FCDAD8"/>
<path id="Vector_8" d="M56.2788 71.0325H74.4663V74.0325H56.2788V71.0325Z" fill="#FCDAD8"/>
<path id="Vector_9" d="M56.2788 77.0325H74.4663V80.0325H56.2788V77.0325Z" fill="#FCDAD8"/>
<path id="Vector_10" d="M54.7632 35.0325H57.7944C57.792 32.6463 56.8332 30.3585 55.1283 28.6711C53.4234 26.9838 51.1118 26.0349 48.7007 26.0325V29.0325C50.3086 29.0325 51.8506 29.6646 52.9875 30.7898C54.1245 31.915 54.7632 33.4412 54.7632 35.0325Z" fill="#FCDAD8"/>
</g>
</svg>
