<svg width="72" height="71" viewBox="0 0 72 71" fill="none" xmlns="http://www.w3.org/2000/svg">
<path d="M60.2864 34.5322H59.177V33.4385C59.177 33.1484 59.0601 32.8702 58.8521 32.6651C58.644 32.46 58.3619 32.3447 58.0676 32.3447H55.8489C56.0948 31.6271 56.301 30.8969 56.4668 30.1572H59.177C59.4712 30.1572 59.7534 30.042 59.9614 29.8369C60.1695 29.6318 60.2864 29.3536 60.2864 29.0635V22.501C60.2864 22.2109 60.1695 21.9327 59.9614 21.7276C59.7534 21.5225 59.4712 21.4072 59.177 21.4072H56.4668C55.9418 18.9555 54.9641 16.6198 53.5824 14.5166L55.4961 12.6299C55.7041 12.4248 55.8209 12.1466 55.8209 11.8566C55.8209 11.5666 55.7041 11.2884 55.4961 11.0833L50.7846 6.44691C50.5765 6.24187 50.2944 6.12668 50.0003 6.12668C49.7061 6.12668 49.424 6.24187 49.2159 6.44691L47.3067 8.33363C45.1728 6.97275 42.804 6.00891 40.3176 5.48988V2.81348C40.3176 2.5234 40.2007 2.2452 39.9927 2.04008C39.7847 1.83496 39.5025 1.71973 39.2083 1.71973H32.552C32.2578 1.71973 31.9756 1.83496 31.7676 2.04008C31.5595 2.2452 31.4426 2.5234 31.4426 2.81348V5.48441C28.9563 6.00344 26.5875 6.96728 24.4536 8.32816L22.5443 6.44691C22.3324 6.2493 22.0517 6.1392 21.76 6.1392C21.4683 6.1392 21.1876 6.2493 20.9757 6.44691L16.2686 11.0877C16.0606 11.2928 15.9438 11.571 15.9438 11.861C15.9438 12.151 16.0606 12.4291 16.2686 12.6343L18.1823 14.5166C16.8006 16.6198 15.8229 18.9555 15.2979 21.4072H12.5833C12.289 21.4072 12.0069 21.5225 11.7988 21.7276C11.5908 21.9327 11.4739 22.2109 11.4739 22.501V29.0635C11.4739 29.3536 11.5908 29.6318 11.7988 29.8369C12.0069 30.042 12.289 30.1572 12.5833 30.1572H15.2935C15.4592 30.8969 15.6655 31.6271 15.9114 32.3447H13.6926C13.3984 32.3447 13.1162 32.46 12.9082 32.6651C12.7001 32.8702 12.5833 33.1484 12.5833 33.4385V34.5322H11.4739C10.5912 34.5322 9.74468 34.8779 9.12054 35.4933C8.49639 36.1086 8.14575 36.9432 8.14575 37.8135V66.251C8.14575 67.1212 8.49639 67.9558 9.12054 68.5712C9.74468 69.1865 10.5912 69.5322 11.4739 69.5322H60.2864C61.1691 69.5322 62.0156 69.1865 62.6397 68.5712C63.2639 67.9558 63.6145 67.1212 63.6145 66.251V37.8135C63.6145 36.9432 63.2639 36.1086 62.6397 35.4933C62.0156 34.8779 61.1691 34.5322 60.2864 34.5322ZM24.3582 32.3447C23.187 30.3497 22.5695 28.0857 22.5676 25.7806C22.5658 23.4755 23.1797 21.2106 24.3477 19.2138C25.5156 17.2169 27.1964 15.5585 29.2209 14.4054C31.2453 13.2524 33.5421 12.6453 35.8801 12.6453C38.2181 12.6453 40.5149 13.2524 42.5394 14.4054C44.5639 15.5585 46.2446 17.2169 47.4126 19.2138C48.5805 21.2106 49.1945 23.4755 49.1926 25.7806C49.1908 28.0857 48.5732 30.3497 47.4021 32.3447H44.8062C44.9238 32.1544 45.0358 31.9619 45.1612 31.7738C46.2727 30.102 46.8982 28.1618 46.9698 26.1641C47.0414 24.1663 46.5564 22.1875 45.5673 20.4424C44.5783 18.6974 43.1231 17.253 41.3599 16.2661C39.5967 15.2792 37.5929 14.7876 35.5662 14.8447C32.7001 14.9465 29.9833 16.1299 27.9771 18.1504C25.9709 20.1709 24.8286 22.8741 24.7864 25.7013C24.7674 27.8675 25.4039 29.9901 26.6146 31.7979C26.7355 31.9783 26.8432 32.1621 26.9563 32.3447H24.3582ZM28.4628 30.5947C27.4956 29.1478 26.9881 27.4494 27.0051 25.7166C27.0386 23.455 27.9523 21.2925 29.5572 19.6762C31.1621 18.0599 33.3356 17.1133 35.6283 17.0322C36.8148 16.999 37.996 17.2008 39.102 17.6256C40.208 18.0505 41.2163 18.6897 42.0673 19.5056C42.9183 20.3214 43.5946 21.2973 44.0563 22.3754C44.518 23.4535 44.7556 24.612 44.7551 25.7822C44.7576 27.4844 44.2538 29.15 43.3063 30.5729C42.4787 31.8102 41.8014 33.1391 41.2883 34.5322H30.4786C29.9695 33.1453 29.2938 31.8234 28.4662 30.5947H28.4628ZM40.3454 38.9072H31.4149C31.3674 38.1718 31.2662 37.4408 31.112 36.7197H40.6527C40.4966 37.4406 40.3939 38.1717 40.3454 38.9072ZM39.632 41.0947L38.5227 43.2822H33.2376L32.1282 41.0947H39.632ZM36.9895 45.4697H39.2083C39.4153 45.4708 39.6186 45.4148 39.7951 45.3079C39.9715 45.201 40.1141 45.0475 40.2067 44.8649L42.4254 40.4899H42.4143C42.4939 40.3388 42.5357 40.1712 42.5364 40.001V39.7986C42.5559 37.9864 42.9413 36.1961 43.6702 34.5322H56.9583V62.9697H43.202C41.05 62.9708 38.9261 63.4521 36.9895 64.3774V45.4697ZM17.3048 28.8819C17.2612 28.6269 17.1275 28.3954 16.9272 28.2284C16.727 28.0614 16.4732 27.9698 16.2109 27.9697H13.6926V23.5947H16.2109C16.4732 23.5947 16.727 23.503 16.9272 23.3361C17.1275 23.1691 17.2612 22.9375 17.3048 22.6825C17.7711 19.922 18.8716 17.3032 20.5219 15.0263C20.6741 14.8157 20.7457 14.5587 20.724 14.301C20.7022 14.0433 20.5886 13.8016 20.4032 13.6186L18.6282 11.8686L21.7667 8.77441L23.5417 10.5244C23.7271 10.7069 23.9721 10.8187 24.2333 10.8402C24.4944 10.8616 24.7548 10.7912 24.9683 10.6414C27.2781 9.01493 29.9342 7.93005 32.7339 7.46957C32.9932 7.42708 33.2287 7.29524 33.3985 7.09755C33.5684 6.89985 33.6615 6.64912 33.6614 6.39004V3.90723H38.0989V6.39004C38.0989 6.64862 38.1919 6.89882 38.3612 7.09625C38.5306 7.29367 38.7655 7.42555 39.0241 7.46848C41.8238 7.92896 44.4799 9.01384 46.7897 10.6404C47.0032 10.7901 47.2636 10.8605 47.5248 10.8391C47.7859 10.8177 48.0309 10.7058 48.2164 10.5233L49.9914 8.77332L53.1298 11.8675L51.3548 13.6175C51.1694 13.8005 51.0558 14.0422 51.0341 14.2999C51.0123 14.5576 51.0839 14.8146 51.2361 15.0252C52.8865 17.3021 53.9869 19.9209 54.4533 22.6814C54.4966 22.937 54.6306 23.1691 54.8314 23.3363C55.0321 23.5036 55.2865 23.5952 55.5493 23.5947H58.0676V27.9697H55.5493C55.2871 27.9698 55.0333 28.0614 54.833 28.2284C54.6328 28.3954 54.499 28.6269 54.4555 28.8819C54.244 30.0645 53.917 31.2241 53.4793 32.3447H49.9082C51.0331 30.0107 51.5406 27.434 51.3834 24.8545C51.2262 22.2751 50.4095 19.7768 49.0093 17.5923C47.609 15.4079 45.6708 13.6083 43.3752 12.3613C41.0796 11.1142 38.5012 10.4603 35.8801 10.4603C33.2591 10.4603 30.6807 11.1142 28.3851 12.3613C26.0894 13.6083 24.1512 15.4079 22.751 17.5923C21.3507 19.7768 20.534 22.2751 20.3768 24.8545C20.2197 27.434 20.7272 30.0107 21.8521 32.3447H18.281C17.8427 31.2243 17.5158 30.0646 17.3048 28.8819ZM14.802 34.5322H28.0968C28.8233 36.1957 29.2065 37.9853 29.2239 39.7964V40.001C29.2269 40.1702 29.2707 40.3362 29.3515 40.4855H29.3404L31.5591 44.8605C31.6506 45.0431 31.7921 45.1969 31.9675 45.3046C32.1429 45.4122 32.3454 45.4694 32.552 45.4697H34.7708V64.3774C32.8342 63.4521 30.7103 62.9708 28.5583 62.9697H14.802V34.5322ZM61.3958 66.251C61.3958 66.5411 61.2789 66.8193 61.0708 67.0244C60.8628 67.2295 60.5806 67.3447 60.2864 67.3447H11.4739C11.1797 67.3447 10.8975 67.2295 10.6894 67.0244C10.4814 66.8193 10.3645 66.5411 10.3645 66.251V37.8135C10.3645 37.5234 10.4814 37.2452 10.6894 37.0401C10.8975 36.835 11.1797 36.7197 11.4739 36.7197H12.5833V64.0635C12.5833 64.3536 12.7001 64.6318 12.9082 64.8369C13.1162 65.042 13.3984 65.1572 13.6926 65.1572H28.5583C30.9473 65.1554 33.2832 65.8528 35.27 67.161C35.4523 67.2809 35.6665 67.3449 35.8857 67.3449C36.1048 67.3449 36.3191 67.2809 36.5014 67.161C38.485 65.8548 40.8167 65.1576 43.202 65.1572H58.0676C58.3619 65.1572 58.644 65.042 58.8521 64.8369C59.0601 64.6318 59.177 64.3536 59.177 64.0635V36.7197H60.2864C60.5806 36.7197 60.8628 36.835 61.0708 37.0401C61.2789 37.2452 61.3958 37.5234 61.3958 37.8135V66.251Z" fill="#016677"/>
<path d="M17.0208 47.6572H30.3333V49.8447H17.0208V47.6572Z" fill="#016677"/>
<path d="M19.2395 43.2822H28.1145V45.4697H19.2395V43.2822Z" fill="#016677"/>
<path d="M43.6458 43.2822H52.5208V45.4697H43.6458V43.2822Z" fill="#016677"/>
<path d="M17.0208 52.0322H30.3333V54.2197H17.0208V52.0322Z" fill="#016677"/>
<path d="M17.0208 56.4072H30.3333V58.5947H17.0208V56.4072Z" fill="#016677"/>
<path d="M41.427 47.6572H54.7395V49.8447H41.427V47.6572Z" fill="#016677"/>
<path d="M41.427 52.0322H54.7395V54.2197H41.427V52.0322Z" fill="#016677"/>
<path d="M41.427 56.4072H54.7395V58.5947H41.427V56.4072Z" fill="#016677"/>
<path d="M40.3176 25.7822H42.5364C42.5346 24.0423 41.8328 22.3741 40.5849 21.1438C39.337 19.9134 37.6449 19.2215 35.8801 19.2197V21.4072C37.057 21.4072 38.1857 21.8682 39.0179 22.6886C39.8501 23.5091 40.3176 24.6219 40.3176 25.7822Z" fill="#016677"/>
</svg>
