<svg width="88" height="87" viewBox="0 0 88 87" fill="none" xmlns="http://www.w3.org/2000/svg">
<g id="analysis_809497 1" clip-path="url(#clip0_858_145)">
<g id="Group">
<g id="Group_2">
<path id="Vector" d="M37.0742 5.82373C20.2635 5.82373 6.63574 19.4515 6.63574 36.2622C6.63574 53.0729 20.2635 66.7006 37.0742 66.7006C53.8849 66.7006 67.5127 53.0729 67.5127 36.2622C67.4944 19.4591 53.8773 5.84203 37.0742 5.82373ZM37.0742 8.72263C46.0275 8.7297 54.4174 13.0933 59.5639 20.4197L55.9402 24.0433C55.0584 23.5097 54.0489 23.2242 53.0182 23.2171C49.8161 23.2171 47.2204 25.8129 47.2204 29.0149C47.2254 30.0468 47.5093 31.0579 48.0422 31.9414L38.5512 41.4324C36.7541 40.3366 34.4954 40.3366 32.6983 41.4324L26.1062 34.8403C26.6391 33.9568 26.923 32.9457 26.928 31.9138C26.932 28.7182 24.3448 26.1244 21.1491 26.1204C18.5062 26.1171 16.197 27.9048 15.5383 30.4644H10.1608C12.9052 17.7913 24.1074 8.74166 37.0742 8.72263ZM55.9171 29.0149C55.9171 30.616 54.6193 31.9138 53.0182 31.9138C51.4171 31.9138 50.1193 30.616 50.1193 29.0149C50.1193 27.4138 51.4171 26.116 53.0182 26.116C54.6193 26.116 55.9171 27.4138 55.9171 29.0149ZM38.5237 46.4083C38.5237 48.0094 37.2258 49.3072 35.6248 49.3072C34.0237 49.3072 32.7258 48.0094 32.7258 46.4083C32.7258 44.8072 34.0237 43.5094 35.6248 43.5094C37.2258 43.5094 38.5237 44.8072 38.5237 46.4083ZM24.0291 31.9138C24.0291 33.5149 22.7313 34.8127 21.1302 34.8127C19.5291 34.8127 18.2313 33.5149 18.2313 31.9138C18.2313 30.3127 19.5291 29.0149 21.1302 29.0149C22.7313 29.0149 24.0291 30.3127 24.0291 31.9138ZM50.4552 60.3423C46.3619 62.615 41.7563 63.8057 37.0742 63.8016C21.8749 63.8119 9.54497 51.499 9.53464 36.2997C9.53392 35.3188 9.58574 34.3384 9.68973 33.3631H15.5383C16.1972 35.915 18.4946 37.7015 21.1302 37.7115C22.1621 37.7064 23.1732 37.4225 24.0567 36.8896L30.6488 43.4817C30.1159 44.3652 29.832 45.3763 29.8269 46.4082C29.8269 49.6102 32.4227 52.206 35.6248 52.206C38.8268 52.206 41.4226 49.6102 41.4226 46.4082C41.4175 45.3763 41.1336 44.3652 40.6007 43.4817L50.0917 33.9907C50.9752 34.5236 51.9863 34.8075 53.0182 34.8126C56.2202 34.8126 58.816 32.2168 58.816 29.0148C58.8109 27.9829 58.527 26.9718 57.9941 26.0883L61.1539 22.93C68.5307 36.2156 63.7406 52.9657 50.4552 60.3423Z" fill="#D78079"/>
</g>
</g>
<g id="Group_3">
<g id="Group_4">
<path id="Vector_2" d="M73.3101 14.5204C75.9458 14.5104 78.2431 12.7242 78.9021 10.172H87.8046V7.27315H78.9021C78.2431 4.72103 75.9458 2.93476 73.3101 2.9248C70.1081 2.9248 67.5123 5.52058 67.5123 8.7226C67.5174 9.75442 67.8013 10.7656 68.3342 11.649L65.7875 14.1957C53.6021 -1.67956 30.8545 -4.67087 14.9792 7.51448C-0.896117 19.6998 -3.88742 42.4477 8.29793 58.323C19.8 73.3079 40.8843 76.943 56.74 66.6745L61.1144 71.049L63.164 73.0985L74.832 84.7666C77.7996 87.7341 82.6107 87.7341 85.5783 84.7666C88.5458 81.799 88.5458 76.9879 85.5783 74.0203L73.9102 62.3523L71.8607 60.3027L67.4862 55.9283C75.2515 43.9674 75.2515 28.5571 67.4862 16.596L70.3851 13.6971C71.268 14.2301 72.2788 14.5146 73.3101 14.5204ZM73.3101 5.8237C74.9112 5.8237 76.209 7.1215 76.209 8.7226C76.209 10.3237 74.9112 11.6215 73.3101 11.6215C71.709 11.6215 70.4112 10.3237 70.4112 8.7226C70.4112 7.1215 71.7092 5.8237 73.3101 5.8237ZM83.5287 76.0699C85.3851 77.8846 85.419 80.8607 83.6043 82.717C81.7896 84.5734 78.8135 84.6073 76.9571 82.7926C76.9316 82.7678 76.9066 82.7426 76.8816 82.717L65.2135 71.049L71.8607 64.4018L83.5287 76.0699ZM69.8111 62.3523L63.164 68.9994L59.1519 64.9874C59.3563 64.8308 59.5476 64.6583 59.7491 64.4975C59.9505 64.3366 60.1839 64.1438 60.3999 63.9626C60.7173 63.6959 61.0304 63.4263 61.3377 63.1495C61.4957 63.0045 61.6464 62.8596 61.8015 62.7146C62.3958 62.158 62.9712 61.5826 63.5278 60.9883C63.6727 60.8332 63.8177 60.6825 63.9626 60.5245C64.2395 60.2172 64.5091 59.9041 64.7758 59.5867C64.9575 59.3722 65.1358 59.1553 65.3106 58.9359C65.47 58.7359 65.6425 58.5446 65.7991 58.3402L69.8111 62.3523ZM64.1902 55.6196C63.7336 56.2573 63.2625 56.882 62.7654 57.4836C62.6204 57.6589 62.4653 57.8285 62.316 58.001C61.8725 58.517 61.4145 59.0176 60.942 59.5026C60.7361 59.7152 60.5269 59.9244 60.3144 60.1303C59.8311 60.6028 59.3307 61.0608 58.8127 61.5043C58.6402 61.6493 58.4707 61.8073 58.2953 61.9537C57.6937 62.4508 57.069 62.9219 56.4313 63.3785C41.4266 74.0981 20.5728 70.6243 9.85319 55.6196C-0.866403 40.6149 2.60739 19.7611 17.6121 9.04148C32.6168 -1.67811 53.4706 1.79549 64.1902 16.8004C72.4848 28.4108 72.4848 44.0091 64.1902 55.6196Z" fill="#D78079"/>
</g>
</g>
</g>
<defs>
<clipPath id="clip0_858_145">
<rect width="87" height="87" fill="white" transform="translate(0.804688 0.00683594)"/>
</clipPath>
</defs>
</svg>
