<svg width="22" height="24" viewBox="0 0 22 24" fill="none" xmlns="http://www.w3.org/2000/svg">
<g id="content_1388394 1" clip-path="url(#clip0_736_207)">
<path id="Vector" d="M4.29688 5.17725C4.29688 4.681 4.68158 4.27881 5.15625 4.27881H16.8438C17.3184 4.27881 17.7031 4.681 17.7031 5.17725C17.7031 5.67349 17.3184 6.07568 16.8438 6.07568H5.15625C4.68158 6.07568 4.29688 5.67349 4.29688 5.17725ZM17.7031 8.771C17.7031 8.27475 17.3184 7.87256 16.8438 7.87256H5.15625C4.68158 7.87256 4.29688 8.27475 4.29688 8.771C4.29688 9.26724 4.68158 9.66943 5.15625 9.66943H16.8438C17.3184 9.66943 17.7031 9.26724 17.7031 8.771ZM5.15625 11.4663C4.68158 11.4663 4.29688 11.8685 4.29688 12.3647C4.29688 12.861 4.68158 13.2632 5.15625 13.2632H9.10938C9.58405 13.2632 9.96875 12.861 9.96875 12.3647C9.96875 11.8685 9.58405 11.4663 9.10938 11.4663H5.15625ZM21.2455 18.5006C22.2501 19.5508 22.2501 21.2607 21.2449 22.3116C20.7423 22.837 20.082 23.0998 19.4219 23.0998C18.7617 23.0998 18.1014 22.837 17.5989 22.3116L12.8995 17.3895C12.7948 17.2798 12.7191 17.1438 12.6796 16.9945L11.7187 13.3683C11.6351 13.0524 11.7224 12.7141 11.9468 12.4853C12.1711 12.2567 12.4967 12.1735 12.7966 12.2688L16.1794 13.343C16.3149 13.386 16.4381 13.4632 16.5379 13.568L21.2455 18.5006ZM14.2755 16.2872L17.4344 19.5958L18.6499 18.325L15.4734 14.9967L13.7921 14.4627L14.2755 16.2872ZM20.0295 19.7705L19.864 19.597L18.6486 20.8676L18.8148 21.0417C19.1493 21.3914 19.6945 21.3914 20.0295 21.041C20.3647 20.6907 20.3647 20.1208 20.0295 19.7705ZM18.5625 0.101074H3.4375C1.54201 0.101074 0 1.71317 0 3.69482V19.5073C0 21.489 1.54201 23.1011 3.4375 23.1011H13.9648C14.4395 23.1011 14.8242 22.6989 14.8242 22.2026C14.8242 21.7064 14.4395 21.3042 13.9648 21.3042H3.4375C2.48984 21.3042 1.71875 20.4981 1.71875 19.5073V3.69482C1.71875 2.70409 2.48984 1.89795 3.4375 1.89795H18.5625C19.5102 1.89795 20.2812 2.70409 20.2812 3.69482V14.7456C20.2812 15.2419 20.666 15.644 21.1406 15.644C21.6153 15.644 22 15.2419 22 14.7456V3.69482C22 1.71317 20.458 0.101074 18.5625 0.101074Z" fill="#016477"/>
</g>
<defs>
<clipPath id="clip0_736_207">
<rect width="22" height="23" fill="white" transform="translate(0 0.101074)"/>
</clipPath>
</defs>
</svg>
