<svg width="64" height="64" viewBox="0 0 64 64" fill="none" xmlns="http://www.w3.org/2000/svg">
<path d="M37.3526 31.3626C37.3558 30.6992 37.0954 30.0616 36.6287 29.5901C36.33 29.3003 35.9771 29.0721 35.5901 28.9188C35.2032 28.7655 34.7898 28.6899 34.3736 28.6964C33.9499 28.6847 33.5286 28.7648 33.1388 28.9315C32.749 29.0981 32.3999 29.3472 32.1156 29.6616C32.0117 29.7411 31.8845 29.7842 31.7536 29.7842C31.6228 29.7842 31.4956 29.7411 31.3917 29.6616C30.7961 29.0561 29.986 28.7094 29.1367 28.6964C28.3835 28.6826 27.6538 28.9592 27.0991 29.4689C26.5445 29.9787 26.2073 30.6824 26.1577 31.4341C26.1577 33.7726 29.8635 37.8805 31.7164 39.5726C33.5663 37.809 37.2721 33.7815 37.3526 31.3626Z" stroke="#006679" stroke-width="1.5" stroke-miterlimit="10"/>
<path d="M41.4636 52.6321L32.5267 52.2299C30.6738 52.1495 28.9818 51.5031 27.8528 50.4426L21.737 46.1886C21.171 45.7835 20.5276 45.1401 20.6884 44.4966C20.8493 43.9306 21.5821 43.6893 21.8175 43.6893H21.8979L31.8654 49.4893H31.9459C32.4302 49.6963 32.9504 49.8066 33.477 49.814C34.2843 49.814 34.9278 49.4089 35.5623 48.6046C35.6754 48.4733 35.7561 48.3173 35.798 48.1492C35.8399 47.981 35.8418 47.8054 35.8036 47.6364C35.5623 46.7427 34.3558 45.9444 33.9507 45.7835L21.737 38.8545H8.67139V47.3147H9.71996C12.8627 47.3147 15.1178 47.8777 16.5715 49.0872L24.9483 55.045C26.2777 55.9512 27.8527 56.4284 29.4614 56.4124H41.3772C42.8279 56.4124 43.9539 55.6081 43.9539 54.5595C43.8795 53.5079 42.8339 52.7125 41.4636 52.6321Z" stroke="#006679" stroke-width="1.5" stroke-miterlimit="10"/>
<path d="M54.434 19.116H53.871C50.7282 19.116 48.4731 18.553 47.0194 17.3286L38.6397 11.3707C37.3123 10.4623 35.7379 9.98396 34.1295 10.0004H22.2883C20.8375 10.0004 19.7085 10.8077 19.7085 11.8533C19.7085 12.8215 20.7571 13.7062 22.1274 13.7062L31.0642 14.1084C32.9171 14.1888 34.6092 14.8352 35.7352 15.8957L41.7795 20.1675C42.3425 20.5697 42.9889 21.2131 42.8281 21.8596C42.6642 22.4226 41.9344 22.6639 41.699 22.6639H41.6186L33.8048 17.8291C33.3227 17.6155 32.801 17.5058 32.2737 17.5073C31.4664 17.5073 30.8229 17.9095 30.1884 18.7168C30.0759 18.8479 29.9956 19.0033 29.9537 19.1709C29.9118 19.3384 29.9096 19.5134 29.9471 19.682C30.1884 20.5757 31.3979 21.377 31.8 21.5349L41.8658 27.5911H55V19.1309L54.434 19.116Z" stroke="#006679" stroke-width="1.5" stroke-miterlimit="10"/>
<g style="mix-blend-mode:darken">
<circle cx="31.6072" cy="31.6072" r="30.6072" stroke="#016677" stroke-width="2"/>
</g>
</svg>
