<svg width="99" height="99" viewBox="0 0 99 99" fill="none" xmlns="http://www.w3.org/2000/svg">
<g id="Group 65887">
<g id="Group 65884">
<path id="Vector" d="M49.7339 98.2104C76.7821 98.2104 98.709 76.2836 98.709 49.2354C98.709 22.1872 76.7821 0.260254 49.7339 0.260254C22.6857 0.260254 0.758789 22.1872 0.758789 49.2354C0.758789 76.2836 22.6857 98.2104 49.7339 98.2104Z" fill="#016477"/>
<path id="Vector_2" d="M40.0636 45.7596C41.1317 45.6884 41.9861 44.7628 41.9861 43.6947L41.8437 37.1439C41.8437 37.0015 41.9149 36.9303 42.0573 36.9303C42.1997 36.9303 42.2709 37.0015 42.2709 37.1439L42.5557 47.6109C42.5557 48.679 43.339 49.6046 44.3359 49.747C45.6175 49.8895 46.7568 48.8926 46.6856 47.6109L46.472 38.0696C46.472 37.9272 46.5432 37.856 46.6856 37.856C46.828 37.856 46.8992 37.9272 46.8992 38.0696L47.184 50.5303C47.184 51.7408 48.1809 52.6664 49.3913 52.6664C49.4625 52.6664 49.5337 52.6664 49.605 52.6664C50.673 52.4528 51.3851 51.4559 51.3851 50.3879L51.029 37.2863C51.029 37.1439 51.1002 37.0727 51.2427 37.0727C51.3851 37.0727 51.4563 37.1439 51.4563 37.2863L51.8123 49.1774C51.8123 50.3879 52.8803 51.3847 54.162 51.3135C55.3013 51.2423 56.2269 50.2455 56.2269 49.1062L56.0133 35.5774C57.0814 37.856 58.5055 39.7785 60.2856 40.7041C61.2112 41.2025 62.2793 40.3481 62.5641 39.3512C62.7065 38.924 62.6353 38.2832 62.2793 37.7135C62.2793 37.7135 59.9296 35.6486 60.1432 30.9492C60.3568 26.2497 54.5892 21.0518 54.5892 21.0518C52.5955 18.9157 52.5243 8.37744 52.5243 8.37744L41.3453 9.08948C41.3453 14.0026 39.6364 21.1942 39.6364 21.1942L38.9243 24.3272C38.1411 27.8874 37.7139 31.59 37.7139 35.2214L37.7851 43.8371C37.9275 44.9052 38.9243 45.8308 40.0636 45.7596Z" fill="white"/>
<path id="Vector_3" d="M56.1547 0.706577C52.6996 0.14032 49.1296 0.238654 46.4458 0.386496C43.6689 0.386496 40.5167 1.14226 37.9264 1.66899L37.6416 14.7149L55.8699 15.7117L56.1547 0.706577Z" fill="white"/>
</g>
<g id="Group 65885">
<path id="Vector_4" d="M55.3992 60.0899C56.2048 59.385 57.4635 59.4353 58.2188 60.1906L62.7502 64.9234C62.8509 65.0241 62.9516 65.0241 63.0523 64.9234C63.153 64.8227 63.153 64.722 63.0523 64.6213L55.8524 57.0186C55.0971 56.2634 54.9964 55.055 55.6006 54.2494C56.4062 53.2424 57.9167 53.1417 58.7726 54.0984L65.3683 60.9962C65.469 61.0969 65.5697 61.0969 65.6704 60.9962C65.7711 60.8955 65.7711 60.7948 65.6704 60.6941L57.0607 51.6816C56.2048 50.8257 56.2552 49.4663 57.1111 48.6103C57.1614 48.56 57.2118 48.5096 57.2621 48.4593C58.1684 47.8551 59.3768 48.0565 60.132 48.8117L69.1445 58.3277C69.2452 58.4284 69.3459 58.4284 69.4466 58.3277C69.5473 58.227 69.5473 58.1263 69.4466 58.0256L61.29 49.3656C60.4341 48.5096 60.4845 47.0495 61.4411 46.1936C62.297 45.4383 63.6564 45.4887 64.462 46.2943L73.8773 56.0116C73.0213 53.6452 72.6689 51.2788 73.2731 49.3656C73.5752 48.3586 74.9346 48.2075 75.8409 48.711C76.2437 48.9124 76.6465 49.4159 76.7975 50.0704C76.7975 50.0704 76.5961 53.1921 80.0702 56.3641C83.5443 59.536 83.1415 67.2898 83.1415 67.2898C83.2422 70.21 90.6435 77.712 90.6435 77.712L82.2352 85.1133C78.7611 81.6392 72.4675 77.7623 72.4675 77.7623L69.7487 76.0505C66.6774 74.0869 63.7571 71.7708 61.1894 69.203L55.1475 63.0605C54.4929 62.2045 54.5433 60.8451 55.3992 60.0899Z" fill="white"/>
<path id="Vector_5" d="M85.3403 66.7207L72.5947 79.8223L80.8544 87.2987C85.4115 83.1689 89.5835 79.3504 92.1468 73.6541L85.3403 66.7207Z" fill="white"/>
</g>
<g id="Group 65886">
<path id="Vector_6" d="M44.0506 60.0898C43.245 59.3849 41.9863 59.4352 41.231 60.1905L36.6996 64.9233C36.5989 65.024 36.4982 65.024 36.3975 64.9233C36.2969 64.8226 36.2969 64.7219 36.3976 64.6212L43.5974 57.0185C44.3527 56.2633 44.4534 55.0549 43.8492 54.2493C43.0436 53.2423 41.5331 53.1416 40.6772 54.0983L34.0815 60.9961C33.9808 61.0968 33.8801 61.0968 33.7794 60.9961C33.6787 60.8954 33.6787 60.7947 33.7794 60.694L42.3891 51.6815C43.245 50.8256 43.1947 49.4662 42.3387 48.6102C42.2884 48.5599 42.238 48.5095 42.1877 48.4592C41.2814 47.855 40.073 48.0564 39.3178 48.8116L30.3053 58.3276C30.2046 58.4283 30.1039 58.4283 30.0032 58.3276C29.9025 58.2269 29.9025 58.1262 30.0032 58.0255L38.1598 49.3655C39.0157 48.5095 38.9653 47.0494 38.0087 46.1935C37.1528 45.4382 35.7934 45.4886 34.9878 46.2942L25.5725 56.0115C26.4285 53.6451 26.7809 51.2787 26.1767 49.3655C25.8746 48.3585 24.5152 48.2074 23.6089 48.7109C23.2061 48.9123 22.8033 49.4158 22.6523 50.0703C22.6523 50.0703 22.8537 53.192 19.3796 56.364C15.9055 59.5359 16.3083 67.2897 16.3083 67.2897C16.2076 70.2099 8.96372 77.0033 8.96372 77.0033L17.2146 85.1132C20.6887 81.6391 26.9823 77.7622 26.9823 77.7622L29.7011 76.0504C32.7724 74.0868 35.6927 71.7707 38.2605 69.2029L44.3023 63.0604C44.9569 62.2044 44.9065 60.845 44.0506 60.0898Z" fill="white"/>
<path id="Vector_7" d="M14.109 66.7202L26.8545 79.8218L18.5948 87.2982C14.0378 83.1684 9.86573 79.3499 7.30238 73.6536L14.109 66.7202Z" fill="white"/>
</g>
</g>
</svg>
