<svg width="112" height="111" viewBox="0 0 112 111" fill="none" xmlns="http://www.w3.org/2000/svg">
<g id="people_9968947" clip-path="url(#clip0_856_80)">
<circle id="Ellipse 44" cx="56.2338" cy="55.2601" r="35.4955" fill="white"/>
<g id="Layer 2">
<g id="peoples">
<path id="Vector" d="M56.2334 0.260254C25.5827 0.260254 0.733398 24.8856 0.733398 55.2603C0.733398 85.6349 25.5827 110.26 56.2334 110.26C86.8841 110.26 111.733 85.6349 111.733 55.2603C111.733 24.8856 86.8841 0.260254 56.2334 0.260254ZM74.2579 31.3739C77.7613 31.3954 80.6838 34.3624 80.6621 37.8708C80.6516 39.1475 80.2588 40.3923 79.5334 41.4475C78.808 42.5026 77.7827 43.3205 76.5876 43.7973C75.3925 44.2742 74.0814 44.3886 72.8206 44.126C71.5598 43.8634 70.4062 43.2356 69.5059 42.3223C68.6056 41.409 67.9993 40.2514 67.764 38.9961C67.5286 37.7409 67.6747 36.4446 68.1837 35.2718C68.6928 34.0989 69.5419 33.1023 70.6233 32.4084C71.7047 31.7144 72.9697 31.3544 74.2579 31.3739ZM56.2334 26.686C57.7749 26.6809 59.2832 27.1293 60.5673 27.9744C61.8515 28.8194 62.8536 30.0231 63.4469 31.4331C64.0402 32.843 64.1978 34.3957 63.9 35.8945C63.6021 37.3933 62.862 38.7708 61.7736 39.8524C60.6851 40.9341 59.2972 41.6713 57.7856 41.9707C56.274 42.2701 54.7068 42.1182 53.2824 41.5342C51.858 40.9502 50.6405 39.9604 49.7842 38.6902C48.9279 37.42 48.4712 35.9265 48.4721 34.3989C48.4778 32.3588 49.2966 30.4035 50.7503 28.9589C52.204 27.5143 54.1747 26.6974 56.2334 26.686ZM38.3108 31.3804C41.7796 31.3374 44.7822 34.2464 44.8364 37.7011C44.855 39.4143 44.1905 41.0656 42.9871 42.2959C41.7838 43.5262 40.1391 44.236 38.4105 44.271C34.8355 44.3118 31.8589 41.4565 31.8264 37.9524C31.8091 37.0976 31.9637 36.2479 32.281 35.4528C32.5984 34.6577 33.0722 33.9332 33.6749 33.3213C34.2776 32.7095 34.9971 32.2226 35.7915 31.889C36.5859 31.5554 37.4393 31.3818 38.3021 31.3782L38.3108 31.3804ZM44.8321 75.389C44.793 77.4794 43.2343 79.0606 41.1335 79.1015C39.2387 79.1401 37.3424 79.1437 35.4447 79.1122C33.4199 79.08 31.8329 77.4063 31.8221 75.3181C31.8069 72.3102 31.7939 69.3024 31.8351 66.2946C31.8351 65.5685 31.6335 65.3235 30.8985 65.3644C29.7148 65.4288 28.5138 65.4761 27.4818 64.6962C26.4932 63.9507 25.9165 62.9774 25.91 61.7507C25.884 57.9164 25.884 54.0815 25.91 50.2458C25.9022 49.3033 26.2664 48.395 26.9251 47.715C27.5837 47.035 28.4845 46.6372 29.4351 46.6063C32.7456 46.5462 36.0583 46.5913 39.3709 46.5956C39.5181 46.617 39.6632 46.6508 39.8045 46.6966C38.4322 48.7526 38.7704 50.9784 38.7531 53.1419C38.7249 56.7513 38.7401 60.3606 38.7531 63.97C38.7726 67.3689 40.804 70.0372 44.108 70.961C44.6868 71.1243 44.8667 71.3542 44.8429 71.9321C44.7974 73.0923 44.8451 74.2353 44.8234 75.3868L44.8321 75.389ZM64.9465 67.3882C64.2245 67.313 63.9882 67.5622 63.9947 68.3013C64.0337 71.786 63.9232 75.2751 64.0424 78.7577C64.153 81.9933 61.8354 83.9612 58.9152 83.8345C56.964 83.7485 55.0128 83.8173 53.0725 83.8065C50.3951 83.7894 48.4938 81.9116 48.4829 79.2433C48.4656 75.6317 48.4829 72.0202 48.4829 68.4108C48.4829 67.3946 48.4829 67.4032 47.4336 67.4054C46.7763 67.4269 46.1182 67.4097 45.4629 67.3538C43.0673 67.0745 41.45 65.345 41.424 62.9517C41.385 59.2413 41.411 55.5288 41.411 51.8163C41.411 50.9569 41.3763 50.1105 41.411 49.2597C41.5172 46.703 43.3015 44.9177 45.877 44.8855C49.3458 44.8425 52.8145 44.8855 56.2833 44.8855H66.3014C69.2737 44.8855 71.084 46.6772 71.0927 49.612C71.1071 53.9733 71.1129 58.3361 71.11 62.7003C71.11 65.4782 69.2174 67.3689 66.399 67.4118C65.9119 67.432 65.4239 67.4234 64.9378 67.386L64.9465 67.3882ZM86.585 61.4542C86.585 63.7681 85.0349 65.3214 82.7086 65.3729H82.5569C80.6707 65.3923 80.6664 65.3923 80.6642 67.2249V75.1226C80.6642 77.5868 79.1206 79.0972 76.6275 79.1079C74.9061 79.1079 73.1855 79.1079 71.4655 79.1079C70.479 79.118 69.5278 78.7446 68.8158 78.0679C68.1038 77.3912 67.6876 76.465 67.6564 75.4878C67.6217 74.2353 67.6564 72.9806 67.6434 71.7259C67.6434 71.3263 67.7843 71.1673 68.1789 71.0706C71.8645 70.164 73.9782 67.5149 73.9956 63.7401C74.0129 59.3015 74.0584 54.8628 73.9674 50.4198C73.9435 49.1587 73.4926 47.904 73.2173 46.5526H75.7711H82.6024C85.0175 46.5677 86.5893 48.1317 86.5915 50.5187C86.5871 54.1724 86.585 57.8176 86.585 61.4542Z" fill="#016477"/>
</g>
</g>
</g>
<defs>
<clipPath id="clip0_856_80">
<rect width="111" height="110" fill="white" transform="translate(0.733398 0.260254)"/>
</clipPath>
</defs>
</svg>
