<svg width="91" height="90" viewBox="0 0 91 90" fill="none" xmlns="http://www.w3.org/2000/svg">
<path d="M33.6391 63.5907L33.6398 63.5907C34.8729 63.5668 35.7875 62.7049 35.8979 61.5063L35.9017 61.3092C35.909 60.9207 35.9063 60.5338 35.9036 60.1354C35.9031 60.0665 35.9026 59.9972 35.9022 59.9275C35.8993 59.4596 35.8987 58.9773 35.918 58.4878L35.918 58.4863C35.9183 58.4791 35.9185 58.4723 35.9187 58.4658C35.9037 58.461 35.8867 58.4559 35.8676 58.4505L33.6391 63.5907ZM33.6391 63.5907C32.1093 63.622 30.5783 63.6249 29.0461 63.5994L29.0455 63.5994M33.6391 63.5907L29.0455 63.5994M29.0455 63.5994C27.8349 63.5801 26.8479 62.5783 26.841 61.2636C26.8287 58.8198 26.8182 56.3834 26.8515 53.9483H26.8516M29.0455 63.5994L26.8516 53.9483M26.8516 53.9483V53.9381M26.8516 53.9483V53.9381M26.8516 53.9381C26.8516 53.6325 26.824 53.1561 26.4838 52.8048C26.1251 52.4344 25.6342 52.4151 25.3001 52.4335C24.3049 52.4877 23.6077 52.4872 23.0178 52.0414L23.0172 52.0409M26.8516 53.9381L23.0172 52.0409M23.0172 52.0409C22.3673 51.5508 22.0427 50.9665 22.0389 50.2432L22.0389 50.2421M23.0172 52.0409L22.0389 50.2421M22.0389 50.2421C22.0178 47.1311 22.0178 44.0195 22.0389 40.9073H22.039M22.0389 50.2421L22.039 40.9073M22.039 40.9073L22.0389 40.8959M22.039 40.9073L22.0389 40.8959M22.0389 40.8959C22.0341 40.3282 22.2535 39.7799 22.6521 39.3683M22.0389 40.8959L22.6521 39.3683M67.2934 52.4395L67.3011 52.4394L67.4156 52.4394C68.1904 52.4206 68.7804 52.1565 69.1746 51.7589C69.5692 51.361 69.8229 50.7739 69.8229 50.0064C69.8229 47.0524 69.8247 44.0915 69.8282 41.1236C69.8273 40.3231 69.5667 39.7227 69.1642 39.3224C68.7611 38.9215 68.1516 38.6578 67.3351 38.6524H61.7892H60.6598C60.6654 38.6747 60.6711 38.6971 60.6767 38.7196C60.7258 38.9151 60.7761 39.1153 60.8263 39.3292C60.9518 39.8645 61.0627 40.4365 61.074 41.0288M67.2934 52.4395L55.9389 58.3147C55.9389 58.3147 55.9388 58.3156 55.9386 58.3173M67.2934 52.4395L67.256 52.4398C66.9052 52.4434 66.5832 52.4467 66.3269 52.4769C66.068 52.5075 65.7141 52.5797 65.4346 52.8526C65.1503 53.1301 65.0748 53.4852 65.0443 53.7457C65.0145 54.0008 65.0141 54.3195 65.0138 54.6614L65.0137 54.6928V54.6937V61.1087C65.0137 61.9502 64.7537 62.5499 64.3574 62.9402C63.9596 63.332 63.344 63.5918 62.4833 63.5958M67.2934 52.4395L62.4833 63.5958M61.074 41.0288C61.074 41.029 61.074 41.0292 61.074 41.0294L60.3253 41.0435L61.074 41.0282C61.074 41.0284 61.074 41.0286 61.074 41.0288ZM61.074 41.0288C61.1355 44.0307 61.1205 47.0312 61.1056 50.02C61.1025 50.6359 61.0994 51.2513 61.097 51.8661L61.097 51.8666C61.0893 53.5423 60.614 55.0168 59.6892 56.1805C58.791 57.3108 57.5078 58.0989 55.9388 58.5108M55.9388 58.5108C55.9384 58.4564 55.938 58.4017 55.9374 58.3467C55.9375 58.331 55.9381 58.3215 55.9386 58.3173M55.9388 58.5108C55.8933 58.5227 55.8475 58.5344 55.8015 58.5457L55.8008 58.5459C55.7531 58.5576 55.745 58.5637 55.7577 58.5573C55.7658 58.5532 55.7801 58.5451 55.7975 58.532C55.7977 58.5319 55.7979 58.5317 55.798 58.5316C55.8168 58.5174 55.8392 58.4975 55.8616 58.4705C55.9009 58.4232 55.9207 58.3788 55.9303 58.3497H55.7533H55.7528H55.1874M55.9388 58.5108C55.9414 58.8927 55.9394 59.2606 55.9374 59.6232C55.9342 60.2113 55.9311 60.7855 55.9476 61.3834M55.9386 58.3173C55.9379 58.3214 55.9363 58.33 55.9327 58.3419M55.9386 58.3173L55.9327 58.3419M55.9476 61.3834C55.9476 61.3827 55.9476 61.3821 55.9476 61.3814L55.198 61.4053M55.9476 61.3834C55.9671 61.9782 56.2207 62.5434 56.6563 62.9574C57.0927 63.3721 57.677 63.602 58.2843 63.5959L58.292 63.5958L58.3002 63.5958H58.3083H58.3165H58.3247H58.3329H58.3411H58.3493H58.3575H58.3656H58.3738H58.382H58.3902H58.3984H58.4066H58.4148H58.4229H58.4311H58.4393H58.4475H58.4557H58.4639H58.4721H58.4802H58.4884H58.4966H58.5048H58.513H58.5212H58.5294H58.5376H58.5457H58.5539H58.5621H58.5703H58.5785H58.5867H58.5949H58.603H58.6112H58.6194H58.6276H58.6358H58.644H58.6522H58.6603H58.6685H58.6767H58.6849H58.6931H58.7013H58.7095H58.7176H58.7258H58.734H58.7422H58.7504H58.7586H58.7668H58.775H58.7831H58.7913H58.7995H58.8077H58.8159H58.8241H58.8323H58.8404H58.8486H58.8568H58.865H58.8732H58.8814H58.8896H58.8978H58.9059H58.9141H58.9223H58.9305H58.9387H58.9469H58.9551H58.9632H58.9714H58.9796H58.9878H58.996H59.0042H59.0124H59.0206H59.0287H59.0369H59.0451H59.0533H59.0615H59.0697H59.0779H59.0861H59.0942H59.1024H59.1106H59.1188H59.127H59.1352H59.1434H59.1515H59.1597H59.1679H59.1761H59.1843H59.1925H59.2007H59.2089H59.217H59.2252H59.2334H59.2416H59.2498H59.258H59.2662H59.2744H59.2825H59.2907H59.2989H59.3071H59.3153H59.3235H59.3317H59.3399H59.348H59.3562H59.3644H59.3726H59.3808H59.389H59.3972H59.4054H59.4135H59.4217H59.4299H59.4381H59.4463H59.4545H59.4627H59.4709H59.479H59.4872H59.4954H59.5036H59.5118H59.52H59.5282H59.5364H59.5445H59.5527H59.5609H59.5691H59.5773H59.5855H59.5937H59.6019H59.61H59.6182H59.6264H59.6346H59.6428H59.651H59.6592H59.6674H59.6756H59.6837H59.6919H59.7001H59.7083H59.7165H59.7247H59.7329H59.7411H59.7492H59.7574H59.7656H59.7738H59.782H59.7902H59.7984H59.8066H59.8148H59.8229H59.8311H59.8393H59.8475H59.8557H59.8639H59.8721H59.8803H59.8884H59.8966H59.9048H59.913H59.9212H59.9294H59.9376H59.9458H59.954H59.9621H59.9703H59.9785H59.9867H59.9949H60.0031H60.0113H60.0195H60.0276H60.0358H60.044H60.0522H60.0604H60.0686H60.0768H60.085H60.0932H60.1013H60.1095H60.1177H60.1259H60.1341H60.1423H60.1505H60.1587H60.1669H60.175H60.1832H60.1914H60.1996H60.2078H60.216H60.2242H60.2324H60.2406H60.2487H60.2569H60.2651H60.2733H60.2815H60.2897H60.2979H60.3061H60.3143H60.3224H60.3306H60.3388H60.347H60.3552H60.3634H60.3716H60.3798H60.388H60.3961H60.4043H60.4125H60.4207H60.4289H60.4371H60.4453H60.4535H60.4617H60.4698H60.478H60.4862H60.4944H60.5026H60.5108H60.519H60.5272H60.5354H60.5436H60.5517H60.5599H60.5681H60.5763H60.5845H60.5927H60.6009H60.6091H60.6173H60.6255H60.6336H60.6418H60.65H60.6582H60.6664H60.6746H60.6828H60.691H60.6992H60.7073H60.7155H60.7237H60.7319H60.7401H60.7483H60.7565H60.7647H60.7729H60.7811H60.7892H60.7974H60.8056H60.8138H60.822H60.8302H60.8384H60.8466H60.8548H60.8629H60.8711H60.8793H60.8875H60.8957H60.9039H60.9121H60.9203H60.9285H60.9367H60.9449H60.953H60.9612H60.9694H60.9776H60.9858H60.994H61.0022H61.0104H61.0186H61.0268H61.0349H61.0431H61.0513H61.0595H61.0677H61.0759H61.0841H61.0923H61.1005H61.1087H61.1168H61.125H61.1332H61.1414H61.1496H61.1578H61.166H61.1742H61.1824H61.1906H61.1987H61.2069H61.2151H61.2233H61.2315H61.2397H61.2479H61.2561H61.2643H61.2725H61.2807H61.2888H61.297H61.3052H61.3134H61.3216H61.3298H61.338H61.3462H61.3544H61.3626H61.3708H61.3789H61.3871H61.3953H61.4035H61.4117H61.4199H61.4281H61.4363H61.4445H61.4527H61.4609H61.469H61.4772H61.4854H61.4936H61.5018H61.51H61.5182H61.5264H61.5346H61.5428H61.551H61.5591H61.5673H61.5755H61.5837H61.5919H61.6001H61.6083H61.6165H61.6247H61.6329H61.6411H61.6492H61.6574H61.6656H61.6738H61.682H61.6902H61.6984H61.7066H61.7148H61.723H61.7312H61.7393H61.7475H61.7557H61.7639H61.7721H61.7803H61.7885H61.7967H61.8049H61.8131H61.8213H61.8295H61.8376H61.8458H61.854H61.8622H61.8704H61.8786H61.8868H61.895H61.9032H61.9114H61.9196H61.9278H61.9359H61.9441H61.9523H61.9605H61.9687H61.9769H61.9851H61.9933H62.0015H62.0097H62.0179H62.0261H62.0342H62.0424H62.0506H62.0588H62.067H62.0752H62.0834H62.0916H62.0998H62.108H62.1162H62.1244H62.1326H62.1407H62.1489H62.1571H62.1653H62.1735H62.1817H62.1899H62.1981H62.2063H62.2145H62.2227H62.2309H62.239H62.2472H62.2554H62.2636H62.2718H62.28H62.2882H62.2964H62.3046H62.3128H62.321H62.3292H62.3374H62.3456H62.3537H62.3619H62.3701H62.3783H62.3865H62.3947H62.4029H62.4111H62.4193H62.4275H62.4357H62.4439H62.452H62.4602H62.4684H62.4766H62.4833M55.9476 61.3834C55.9477 61.3838 55.9477 61.3842 55.9477 61.3846L55.198 61.4053M55.198 61.4053C55.1813 60.8025 55.1844 60.199 55.1875 59.5953C55.1896 59.1802 55.1917 58.7649 55.1874 58.3497M55.198 61.4053C55.2233 62.1991 55.5613 62.9514 56.1397 63.501L62.4833 63.5958M55.1874 58.3497L55.7513 58.3438L55.7519 58.3438L55.9327 58.3419M55.1874 58.3497L55.9327 58.3419M22.6521 39.3683C23.0498 38.9577 23.5947 38.7158 24.1715 38.6958M22.6521 39.3683L24.1715 38.6958M24.1715 38.6958C26.098 38.6609 28.0215 38.67 29.9551 38.6791C30.4327 38.6814 30.911 38.6837 31.39 38.6853L24.1715 38.6958ZM45.9195 89.6497C21.023 89.6497 0.838867 69.6474 0.838867 44.9752C0.838867 20.3031 21.023 0.300781 45.9195 0.300781C70.8159 0.300781 91.0001 20.3031 91.0001 44.9752M60.5487 26.3232V26.3232L60.5555 26.3233C62.9849 26.3382 65.0262 28.4078 65.012 30.8443C65.0047 31.7312 64.7319 32.5966 64.2271 33.3307C63.7224 34.0649 63.0082 34.6351 62.1745 34.9677C61.3407 35.3004 60.4256 35.3803 59.5456 35.1971C58.6656 35.0138 57.8613 34.5758 57.2343 33.9397C56.6074 33.3038 56.186 32.4984 56.0225 31.6262C55.8589 30.7541 55.9603 29.8533 56.3142 29.038C56.6682 28.2225 57.259 27.5285 58.0129 27.0447C58.7668 26.5609 59.6494 26.3095 60.5487 26.3232ZM31.2679 26.328L31.2746 26.3296L31.3709 26.3284C33.7774 26.2986 35.8738 28.3333 35.9122 30.7229C35.9245 31.9139 35.4624 33.063 34.6238 33.9204C33.7853 34.7777 32.638 35.2739 31.4305 35.2992C28.9285 35.3259 26.867 33.3256 26.8445 30.9098H26.8446L26.8444 30.9016C26.8324 30.3077 26.9398 29.7172 27.1604 29.1644C27.381 28.6116 27.7106 28.1074 28.1303 27.6814C28.55 27.2553 29.0515 26.9158 29.6056 26.6831C30.1323 26.462 30.6963 26.3415 31.2679 26.328ZM53.0471 54.0776C52.7103 54.0455 52.2282 54.0565 51.8639 54.413C51.5061 54.763 51.4709 55.2491 51.4737 55.5746L51.4738 55.5764C51.4859 56.6635 51.4797 57.7702 51.4735 58.8842C51.4637 60.6158 51.4539 62.3652 51.5129 64.087C51.5512 65.2078 51.1725 66.0493 50.5878 66.6026C49.9973 67.1613 49.1397 67.4794 48.1308 67.4358C47.065 67.3888 45.9815 67.3978 44.9241 67.4065C44.3932 67.4109 43.8689 67.4152 43.3568 67.4124C42.4477 67.4065 41.7115 67.0878 41.204 66.5842C40.6972 66.0813 40.3777 65.3536 40.374 64.4527V64.4522C40.3646 62.4986 40.3678 60.5471 40.3709 58.5933C40.3725 57.6153 40.374 56.6367 40.374 55.657L40.374 55.6261C40.3741 55.4473 40.3742 55.2543 40.3558 55.0949C40.3367 54.9296 40.2831 54.6313 40.0341 54.3947C39.7921 54.1648 39.4977 54.1207 39.3392 54.1048C39.1835 54.0892 38.9936 54.0897 38.8119 54.0902L38.7702 54.0903L38.7587 54.0903L38.7471 54.0907C38.2467 54.1071 37.7456 54.0942 37.2467 54.0521C35.6659 53.8632 34.6572 52.7613 34.6403 51.2148L53.0471 54.0776ZM45.9226 22.5155C47.0275 22.5119 48.1081 22.8334 49.0275 23.4384C49.947 24.0435 50.6635 24.9047 51.0874 25.9122C51.5113 26.9196 51.6239 28.0285 51.4111 29.099C51.1984 30.1694 50.6697 31.1541 49.8909 31.9281C49.112 32.7021 48.1181 33.2303 47.0345 33.4449C45.951 33.6595 44.8276 33.5506 43.807 33.1321C42.7864 32.7137 41.9152 32.005 41.3029 31.0968C40.6908 30.1888 40.3647 29.1219 40.3652 28.0312C40.3696 26.5746 40.9544 25.1772 41.9944 24.1436C43.0347 23.1098 44.4465 22.5238 45.9226 22.5155Z" stroke="#016677" stroke-width="1.5"/>
<g style="mix-blend-mode:darken">
<circle cx="45.6072" cy="42.6072" r="30.6072" stroke="#016677" stroke-width="2"/>
</g>
</svg>
