<svg width="112" height="111" viewBox="0 0 112 111" fill="none" xmlns="http://www.w3.org/2000/svg">
<g id="tasks_906334" clip-path="url(#clip0_856_27)">
<path id="Vector" d="M56.3232 110.26C86.975 110.26 111.823 85.6359 111.823 55.2603C111.823 24.8846 86.975 0.260254 56.3232 0.260254C25.6714 0.260254 0.823242 24.8846 0.823242 55.2603C0.823242 85.6359 25.6714 110.26 56.3232 110.26Z" fill="#016477"/>
<path id="Vector_2" d="M79.6705 30.5447L76.303 27.2075H24.1943V83.3131L51.1439 110.02C52.8497 110.176 54.5763 110.26 56.323 110.26C86.2008 110.26 110.56 86.8628 111.772 57.5488L88.4514 34.4389L81.2102 28.7078L79.6705 30.5447Z" fill="#016477"/>
<g id="Group">
<path id="Vector_3" d="M74.3744 76.9355H30.63V33.5852H70.9568L76.303 27.2075H24.1943V83.3131H80.81V51.979L74.3744 59.6287V76.9355Z" fill="white"/>
<path id="Vector_4" d="M40.3116 44.0244L33.8447 50.433L56.4566 72.8412L65.7702 62.2567L88.4511 34.4392L81.2099 28.708L55.7926 59.0304L40.3116 44.0244Z" fill="white"/>
</g>
</g>
<defs>
<clipPath id="clip0_856_27">
<rect width="111" height="110" fill="white" transform="translate(0.823242 0.260254)"/>
</clipPath>
</defs>
</svg>
