<svg width="88" height="88" viewBox="0 0 88 88" fill="none" xmlns="http://www.w3.org/2000/svg">
<g id="tick-mark_2878682 1" clip-path="url(#clip0_859_228)">
<path id="Vector" d="M39.9467 56.7777C39.2253 56.7777 38.5257 56.4877 38.0182 55.9729L28.1292 46.0042C27.0707 44.9384 27.078 43.2165 28.1437 42.158C29.2131 41.0995 30.935 41.1104 31.9898 42.1725L39.8126 50.0605L55.1935 32.3343C56.1758 31.1997 57.8977 31.08 59.0287 32.0624C60.1633 33.0448 60.2866 34.763 59.3006 35.8977L42.0021 55.8352C41.5055 56.4043 40.795 56.745 40.041 56.7704C40.0047 56.7777 39.9721 56.7777 39.9467 56.7777Z" fill="#D78079"/>
<path id="Vector_2" d="M43.6514 80.3401C23.6631 80.3401 7.40137 64.0783 7.40137 44.0901C7.40137 24.1018 23.6631 7.84009 43.6514 7.84009C63.6396 7.84009 79.9014 24.1018 79.9014 44.0901C79.9014 64.0783 63.6396 80.3401 43.6514 80.3401ZM43.6514 13.2776C26.661 13.2776 12.8389 27.0997 12.8389 44.0901C12.8389 61.0805 26.661 74.9026 43.6514 74.9026C60.6418 74.9026 74.4639 61.0805 74.4639 44.0901C74.4639 27.0997 60.6418 13.2776 43.6514 13.2776Z" fill="#D78079"/>
<path id="Vector_3" d="M43.6514 16.667C42.1506 16.667 40.9326 15.449 40.9326 13.9482V3.30884C40.9326 1.80809 42.1506 0.590088 43.6514 0.590088C45.1521 0.590088 46.3701 1.80809 46.3701 3.30884V13.9482C46.3701 15.449 45.1521 16.667 43.6514 16.667Z" fill="#D78079"/>
<path id="Vector_4" d="M43.6514 87.5901C42.1506 87.5901 40.9326 86.3721 40.9326 84.8713V74.2319C40.9326 72.7312 42.1506 71.5132 43.6514 71.5132C45.1521 71.5132 46.3701 72.7312 46.3701 74.2319V84.8713C46.3701 86.3721 45.1521 87.5901 43.6514 87.5901Z" fill="#D78079"/>
<path id="Vector_5" d="M84.4323 46.8088H73.793C72.2922 46.8088 71.0742 45.5908 71.0742 44.0901C71.0742 42.5893 72.2922 41.3713 73.793 41.3713H84.4323C85.9331 41.3713 87.1511 42.5893 87.1511 44.0901C87.1511 45.5908 85.9331 46.8088 84.4323 46.8088Z" fill="#D78079"/>
<path id="Vector_6" d="M13.5095 46.8088H2.87012C1.36937 46.8088 0.151367 45.5908 0.151367 44.0901C0.151367 42.5893 1.36937 41.3713 2.87012 41.3713H13.5095C15.0102 41.3713 16.2282 42.5893 16.2282 44.0901C16.2282 45.5908 15.0102 46.8088 13.5095 46.8088Z" fill="#D78079"/>
</g>
<defs>
<clipPath id="clip0_859_228">
<rect width="87" height="87" fill="white" transform="translate(0.151367 0.590088)"/>
</clipPath>
</defs>
</svg>
