<svg width="90" height="90" viewBox="0 0 90 90" fill="none" xmlns="http://www.w3.org/2000/svg">
<g id="upload_3423840 1" clip-path="url(#clip0_859_215)">
<path id="Vector" d="M74.7071 89.5864H63.5821C61.5388 89.5864 59.8737 87.9213 59.8737 85.878V67.3364H50.6029C49.8538 67.3364 49.1752 66.884 48.8896 66.1905C48.6004 65.497 48.7598 64.6998 49.2901 64.1695L67.8318 45.6278C68.5549 44.9047 69.7305 44.9047 70.4536 45.6278L88.9953 64.1695C89.5256 64.6998 89.685 65.497 89.3958 66.1905C89.1139 66.884 88.4353 67.3364 87.6862 67.3364H78.4154V85.878C78.4154 87.9213 76.7503 89.5864 74.7071 89.5864ZM55.0788 63.628H61.7279C62.7514 63.628 63.5821 64.4587 63.5821 65.4822V85.878H74.7071V65.4822C74.7071 64.4587 75.5377 63.628 76.5612 63.628H83.2103L69.1446 49.5623L55.0788 63.628Z" fill="#D78079"/>
<path id="Vector_2" d="M40.4046 62.8864C39.9893 62.8864 39.5665 62.7455 39.2217 62.4563C32.5763 56.9271 25.6158 54.6502 17.921 55.5328C16.319 55.7182 14.7059 55.2176 13.5081 54.1496C12.3362 53.1113 11.665 51.6205 11.665 50.0556V6.48268C11.665 3.70885 13.738 1.32439 16.4859 0.938725C25.3451 -0.374025 33.7 2.09202 41.3317 8.28864C48.9635 2.09572 57.3072 -0.377733 66.1887 0.942433C68.9254 1.32439 70.9984 3.70885 70.9984 6.48268V35.8156C70.9984 36.8391 70.1677 37.6698 69.1442 37.6698C68.1207 37.6698 67.29 36.8391 67.29 35.8156V6.48268C67.29 5.54818 66.5892 4.73977 65.6584 4.60998C57.3109 3.36768 49.7496 5.82631 42.5518 12.1082C41.8546 12.7164 40.8125 12.7164 40.1154 12.1082C32.9138 5.82631 25.3636 3.3751 17.0162 4.60627C16.0742 4.73977 15.3734 5.54448 15.3734 6.48268V50.0556C15.3734 50.5711 15.5847 51.042 15.9667 51.3795C16.3746 51.7429 16.9235 51.9098 17.4945 51.8467C26.1164 50.8714 34.2265 53.4784 41.5913 59.6046C42.3775 60.2572 42.485 61.4291 41.8286 62.2152C41.4652 62.6565 40.9349 62.8864 40.4046 62.8864Z" fill="#D78079"/>
<path id="Vector_3" d="M80.2692 45.0865C79.2457 45.0865 78.415 44.2558 78.415 43.2323V13.5657C78.415 12.5422 77.5844 11.7115 76.5609 11.7115H69.1442C68.1207 11.7115 67.29 10.8808 67.29 9.85734C67.29 8.83384 68.1207 8.00317 69.1442 8.00317H76.5609C79.6277 8.00317 82.1234 10.4989 82.1234 13.5657V43.2323C82.1234 44.2558 81.2927 45.0865 80.2692 45.0865Z" fill="#D78079"/>
<path id="Vector_4" d="M40.108 63.6282H6.10254C3.03575 63.6282 0.540039 61.1325 0.540039 58.0657V13.5657C0.540039 10.5545 3.02091 8.0588 6.06916 8.00317H13.5192C14.5427 8.00317 15.3734 8.83384 15.3734 9.85734C15.3734 10.8808 14.5427 11.7115 13.5192 11.7115H6.10254C5.09758 11.73 4.24837 12.5607 4.24837 13.5657V58.0657C4.24837 59.0892 5.07904 59.9198 6.10254 59.9198H40.108C41.1315 59.9198 41.9621 60.7505 41.9621 61.774C41.9621 62.7975 41.1315 63.6282 40.108 63.6282Z" fill="#D78079"/>
<path id="Vector_5" d="M41.3317 63.6282C40.3082 63.6282 39.4775 62.7975 39.4775 61.774V9.85734C39.4775 8.83384 40.3082 8.00317 41.3317 8.00317C42.3552 8.00317 43.1859 8.83384 43.1859 9.85734V61.774C43.1859 62.7975 42.3552 63.6282 41.3317 63.6282Z" fill="#D78079"/>
</g>
<defs>
<clipPath id="clip0_859_215">
<rect width="89" height="89" fill="white" transform="translate(0.540039 0.586426)"/>
</clipPath>
</defs>
</svg>
